<?xml version="1.0" encoding="UTF-8"?>
<svg version="1.1" xmlns="http://www.w3.org/2000/svg" width="257" height="266">
<path d="M0 0 C84.81 0 169.62 0 257 0 C257 87.78 257 175.56 257 266 C172.19 266 87.38 266 0 266 C0 178.22 0 90.44 0 0 Z " fill="#FAF9F9" transform="translate(0,0)"/>
<path d="M0 0 C0.556875 0.28875 1.11375 0.5775 1.6875 0.875 C4.12171315 2.21486464 4.12171315 2.21486464 7.625 2.4375 C9.295625 2.7159375 9.295625 2.7159375 11 3 C11.99 4.485 11.99 4.485 13 6 C13.65871094 6.31453125 14.31742187 6.6290625 14.99609375 6.953125 C17.45117781 8.23570303 17.94467667 9.25304398 19.0625 11.75 C20.20921413 14.2700516 21.3494802 16.59910892 22.75 19 C25.79220083 26.301282 23.45336252 32.87356602 21 40 C22.485 40.495 22.485 40.495 24 41 C25.04335711 44.73869631 25.35871765 46.35430823 23.4375 49.8125 C21 52 21 52 17.875 52.5 C16.92625 52.665 15.9775 52.83 15 53 C13.69485264 55.21776622 13.69485264 55.21776622 13 58 C12.505 58.825 12.01 59.65 11.5 60.5 C9.23065963 65.79512753 8.71720125 71.31301598 8 77 C6.68 77 5.36 77 4 77 C4.61623466 83.16234658 5.8307574 89.10280663 7.18359375 95.14453125 C7.45300781 96.41683594 7.72242188 97.68914062 8 99 C8.17208984 99.72276123 8.34417969 100.44552246 8.52148438 101.19018555 C10.57766605 110.75049571 10.45568751 120.45291394 10.625 130.1875 C10.66325859 132.01629304 10.70231465 133.84506957 10.7421875 135.67382812 C10.8373203 140.11574859 10.92165798 144.55775298 11 149 C13.20857055 148.85780436 15.41684987 148.71108153 17.625 148.5625 C18.85476562 148.48128906 20.08453125 148.40007812 21.3515625 148.31640625 C24.94971166 148.07003931 24.94971166 148.07003931 28.2421875 147.36328125 C33.43175104 146.67967019 37.22583943 150.42317447 41.1875 153.375 C44.08771647 156.0818687 46.13673493 158.49706167 48 162 C47.59765625 164.18359375 47.59765625 164.18359375 47 166 C46.24074219 166.13277344 45.48148437 166.26554688 44.69921875 166.40234375 C43.20841797 166.66724609 43.20841797 166.66724609 41.6875 166.9375 C40.70136719 167.11152344 39.71523437 167.28554687 38.69921875 167.46484375 C35.91810787 167.95746847 35.91810787 167.95746847 33 169 C31.43881572 169.06740865 29.8749748 169.08514456 28.3125 169.0625 C27.50425781 169.05347656 26.69601563 169.04445312 25.86328125 169.03515625 C24.94095703 169.01775391 24.94095703 169.01775391 24 169 C24.495 171.475 24.495 171.475 25 174 C23.71390795 174.4939339 22.42058372 174.96902769 21.125 175.4375 C20.40570313 175.70433594 19.68640625 175.97117188 18.9453125 176.24609375 C9.32695624 178.7080868 -0.82920667 178.16351358 -10.6875 178.125 C-11.46012177 178.12245209 -12.23274353 178.11990417 -13.02877808 178.11727905 C-17.66018853 178.09939901 -22.29127228 178.06557905 -26.92248535 178.01959229 C-28.80864214 178.00180463 -30.69484953 177.98960073 -32.58105469 177.97802734 C-47.62789567 177.84224215 -61.03168252 175.84277871 -75 170 C-71.25843006 168.75281002 -67.91630801 168.51977618 -64 169 C-62.4375 170.375 -62.4375 170.375 -61 172 C-58.69011685 172.74386068 -56.35684056 173.42190703 -54 174 C-54.12181641 173.05640625 -54.12181641 173.05640625 -54.24609375 172.09375 C-54.63014471 166.88946761 -54.37767953 163.69485525 -50.9375 159.625 C-46.47320059 155.18764807 -42.59183227 152.20901873 -36.125 151.6875 C-33 152 -33 152 -32 153 C-30.48530552 153.23192865 -28.96245438 153.41215238 -27.4375 153.5625 C-26.61121094 153.64628906 -25.78492188 153.73007813 -24.93359375 153.81640625 C-24.29550781 153.87699219 -23.65742187 153.93757812 -23 154 C-23 153.34 -23 152.68 -23 152 C-24.093125 151.855625 -25.18625 151.71125 -26.3125 151.5625 C-30 151 -30 151 -33 150 C-33 149.01 -33 148.02 -33 147 C-31.576875 147.2165625 -31.576875 147.2165625 -30.125 147.4375 C-24.45642923 148.24729582 -18.73027532 149 -13 149 C-12.93941406 148.19175781 -12.87882812 147.38351563 -12.81640625 146.55078125 C-12.73261719 145.48214844 -12.64882812 144.41351563 -12.5625 143.3125 C-12.48128906 142.25675781 -12.40007812 141.20101562 -12.31640625 140.11328125 C-12 137 -12 137 -11.5078125 134.625 C-7.94945911 116.23105016 -9.69870614 95.37221998 -19.7265625 79.21875 C-21.46786168 76.81339381 -21.46786168 76.81339381 -24 74 C-23.34 74 -22.68 74 -22 74 C-22.74369978 59.55639181 -22.74369978 59.55639181 -27 46 C-29.43562001 44.38993968 -29.43562001 44.38993968 -32 44 C-34 42 -34 42 -34.3125 38.0625 C-34.24424398 35.37613795 -34.18435641 34.28092405 -32.6875 32 C-31 31 -31 31 -28 31 C-28.05220703 29.87851563 -28.05220703 29.87851563 -28.10546875 28.734375 C-28.13253906 27.74953125 -28.15960938 26.7646875 -28.1875 25.75 C-28.22230469 24.77546875 -28.25710937 23.8009375 -28.29296875 22.796875 C-27.95443077 19.56496575 -27.06648706 18.43568574 -25 16 C-24.54625 14.865625 -24.0925 13.73125 -23.625 12.5625 C-21.44361555 7.78023409 -19.07065319 4.941206 -14.25 2.75 C-10.81163722 1.95653167 -7.46537075 1.5387809 -3.953125 1.24609375 C-1.92370233 1.10013932 -1.92370233 1.10013932 0 0 Z " fill="#DFA689" transform="translate(150,42)"/>
<path d="M0 0 C6.11516506 1.63870436 9.61742044 3.28872697 14 8 C15.35460216 8.90987979 16.72947454 9.78990329 18.1171875 10.6484375 C23.22073366 13.99654862 27.37027349 17.96036675 31.625 22.3125 C32.69234375 23.37500977 32.69234375 23.37500977 33.78125 24.45898438 C38.0008953 28.72113526 41.79614078 33.13071229 45.37255859 37.94604492 C47.10851084 40.13694895 49.0181538 42.03133357 51 44 C53.13110534 46.57801609 55.1194708 49.26102124 57.125 51.9375 C57.66253906 52.64068359 58.20007813 53.34386719 58.75390625 54.06835938 C64.79638007 62.1074112 66.35268278 68.84321812 65 79 C63.50557982 82.02280445 61.80850397 84.12551684 59 86 C56.796875 86.66796875 56.796875 86.66796875 55 87 C55 88.32 55 89.64 55 91 C47.34916042 92.24911667 39.72559014 92.09053426 32 92 C34.90092502 90.06604999 35.89674737 89.69868059 39.1875 89.375 C40.445625 89.25125 41.70375 89.1275 43 89 C42.50687357 83.4112338 39.37231416 80.10684091 35.359375 76.54296875 C31.37750867 73.43101466 28.1696589 72.20273172 23 72 C22.01 72.495 22.01 72.495 21 73 C18.62597499 73.07116382 16.24999323 73.08409085 13.875 73.0625 C11.95300781 73.04896484 11.95300781 73.04896484 9.9921875 73.03515625 C9.00476563 73.02355469 8.01734375 73.01195312 7 73 C6.41425012 66.96589997 5.94644014 60.97077539 5.89453125 54.90625 C5.72434601 38.91877526 3.42949892 24.20841693 -0.46508789 8.70947266 C-0.99091215 6.04603239 -1.17441517 3.7062772 -1 1 C-0.67 0.67 -0.34 0.34 0 0 Z " fill="#CDC9C3" transform="translate(154,118)"/>
<path d="M0 0 C0.33 0 0.66 0 1 0 C1 3.96 1 7.92 1 12 C3.20857055 11.85780436 5.41684987 11.71108153 7.625 11.5625 C9.46964844 11.44068359 9.46964844 11.44068359 11.3515625 11.31640625 C14.94971166 11.07003931 14.94971166 11.07003931 18.2421875 10.36328125 C23.43175104 9.67967019 27.22583943 13.42317447 31.1875 16.375 C34.08771647 19.0818687 36.13673493 21.49706167 38 25 C37.59765625 27.18359375 37.59765625 27.18359375 37 29 C36.24074219 29.13277344 35.48148437 29.26554687 34.69921875 29.40234375 C33.70535156 29.57894531 32.71148437 29.75554687 31.6875 29.9375 C30.70136719 30.11152344 29.71523437 30.28554687 28.69921875 30.46484375 C25.91810787 30.95746847 25.91810787 30.95746847 23 32 C21.43881572 32.06740865 19.8749748 32.08514456 18.3125 32.0625 C17.10013672 32.04896484 17.10013672 32.04896484 15.86328125 32.03515625 C15.24839844 32.02355469 14.63351563 32.01195312 14 32 C14.495 34.475 14.495 34.475 15 37 C13.71390795 37.4939339 12.42058372 37.96902769 11.125 38.4375 C10.40570313 38.70433594 9.68640625 38.97117188 8.9453125 39.24609375 C-0.67304376 41.7080868 -10.82920667 41.16351358 -20.6875 41.125 C-21.46012177 41.12245209 -22.23274353 41.11990417 -23.02877808 41.11727905 C-27.66018853 41.09939901 -32.29127228 41.06557905 -36.92248535 41.01959229 C-38.80864214 41.00180463 -40.69484953 40.98960073 -42.58105469 40.97802734 C-57.62789567 40.84224215 -71.03168252 38.84277871 -85 33 C-81.25843006 31.75281002 -77.91630801 31.51977618 -74 32 C-72.4375 33.375 -72.4375 33.375 -71 35 C-68.69011685 35.74386068 -66.35684056 36.42190703 -64 37 C-64.08121094 36.3709375 -64.16242188 35.741875 -64.24609375 35.09375 C-64.63014471 29.88946761 -64.37767953 26.69485525 -60.9375 22.625 C-56.47320059 18.18764807 -52.59183227 15.20901873 -46.125 14.6875 C-43 15 -43 15 -42 16 C-39.85441173 16.08775605 -37.70595579 16.10695219 -35.55859375 16.09765625 C-34.25341797 16.09443359 -32.94824219 16.09121094 -31.60351562 16.08789062 C-30.2148431 16.07953401 -28.82617123 16.07106905 -27.4375 16.0625 C-26.04492344 16.05748666 -24.65234519 16.05292347 -23.25976562 16.04882812 C-19.8398013 16.03699434 -16.41992156 16.0205088 -13 16 C-13.495 14.515 -13.495 14.515 -14 13 C-13 12 -13 12 -10.05859375 11.90234375 C-8.26615234 11.91974609 -8.26615234 11.91974609 -6.4375 11.9375 C-4.64119141 11.95103516 -4.64119141 11.95103516 -2.80859375 11.96484375 C-1.88175781 11.97644531 -0.95492187 11.98804688 0 12 C0 8.04 0 4.08 0 0 Z " fill="#D6997B" transform="translate(160,179)"/>
<path d="M0 0 C0.33 0 0.66 0 1 0 C1 2.66666667 1 5.33333333 1 8 C1.86625 8.99 2.7325 9.98 3.625 11 C14.9754885 25.80146837 14.99827556 46.35046904 13 64 C12.18333228 69.700548 11.12374154 75.35302206 10 81 C2.55386857 82.34274501 -2.84968433 81.36561846 -10 79 C-10 79.99 -10 80.98 -10 82 C-6.7 82.66 -3.4 83.32 0 84 C0 84.66 0 85.32 0 86 C-1.47906892 86.02689216 -2.95827483 86.04634621 -4.4375 86.0625 C-5.67306641 86.07990234 -5.67306641 86.07990234 -6.93359375 86.09765625 C-9 86 -9 86 -10 85 C-16.07641392 84.1138563 -19.090214 85.94991013 -23.984375 89.4921875 C-24.64953125 89.98976563 -25.3146875 90.48734375 -26 91 C-27.485 91.99 -27.485 91.99 -29 93 C-29 90 -29 90 -28 87 C-28 86.34 -28 85.68 -28 85 C-28 82.66666667 -28 80.33333333 -28 78 C-26.515 77.505 -26.515 77.505 -25 77 C-24.87882812 75.83082031 -24.75765625 74.66164063 -24.6328125 73.45703125 C-24.46391599 71.90881329 -24.29462432 70.36063839 -24.125 68.8125 C-24.04636719 68.04357422 -23.96773438 67.27464844 -23.88671875 66.48242188 C-23.42108916 62.3096644 -22.70893808 58.87359298 -21 55 C-20.83201738 52.29113059 -20.83201738 52.29113059 -21 50 C-20.34 50 -19.68 50 -19 50 C-19 48.35 -19 46.7 -19 45 C-18.01 45.33 -17.02 45.66 -16 46 C-16.05800781 45.34773438 -16.11601563 44.69546875 -16.17578125 44.0234375 C-16.59045296 35.99065399 -16.59045296 35.99065399 -13.6875 32.375 C-11 30 -11 30 -8 30 C-7.91860858 27.60347472 -7.85932991 25.20974564 -7.8125 22.8125 C-7.78736328 22.13896484 -7.76222656 21.46542969 -7.73632812 20.77148438 C-7.67076522 16.29135252 -8.33256351 13.60559001 -11 10 C-9.73461631 9.15841464 -8.46246221 8.32700252 -7.1875 7.5 C-6.12595703 6.80390625 -6.12595703 6.80390625 -5.04296875 6.09375 C-3 5 -3 5 0 5 C0 3.35 0 1.7 0 0 Z " fill="#EDEAE6" transform="translate(127,110)"/>
<path d="M0 0 C0.08333357 4.8333472 -0.04738513 9.23692563 -1 14 C-2.32 14 -3.64 14 -5 14 C-4.38376534 20.16234658 -3.1692426 26.10280663 -1.81640625 32.14453125 C-1.54699219 33.41683594 -1.27757812 34.68914062 -1 36 C-0.82210937 36.72276123 -0.64421875 37.44552246 -0.4609375 38.19018555 C1.64975554 47.76034473 1.21854109 57.44598939 1.125 67.1875 C1.11494913 69.01627114 1.10582701 70.84504762 1.09765625 72.67382812 C1.07581189 77.11601956 1.04139842 81.55794953 1 86 C-5.435 86.495 -5.435 86.495 -12 87 C-12 87.99 -12 88.98 -12 90 C-17.80176329 92.90088165 -27.59664395 91.57690622 -33.7265625 90.10546875 C-36.53180928 89.15811214 -39.27478339 88.1561525 -42 87 C-42 86.01 -42 85.02 -42 84 C-41.05125 84.144375 -40.1025 84.28875 -39.125 84.4375 C-33.45642923 85.24729582 -27.73027532 86 -22 86 C-21.90912109 84.78763672 -21.90912109 84.78763672 -21.81640625 83.55078125 C-21.73261719 82.48214844 -21.64882812 81.41351563 -21.5625 80.3125 C-21.48128906 79.25675781 -21.40007812 78.20101562 -21.31640625 77.11328125 C-21 74 -21 74 -20.5078125 71.625 C-16.94265431 53.19587458 -19.8402018 36.06288864 -27 19 C-27.66894239 17.33424543 -28.33663387 15.6679831 -29 14 C-23.06991473 16.37203411 -19.32039813 20.38353398 -15 25 C-14.9175 23.9275 -14.835 22.855 -14.75 21.75 C-14 18 -14 18 -12.0625 16.125 C-9.71613652 13.7075346 -9.64064607 12.78927489 -9.125 9.5625 C-8.48550487 6.03946319 -7.75319592 4.2650811 -5 1.9375 C-2 0 -2 0 0 0 Z " fill="#B97789" transform="translate(159,105)"/>
<path d="M0 0 C0.69287109 0.00451172 1.38574219 0.00902344 2.09960938 0.01367188 C3.79561068 0.02536844 5.49156703 0.04330076 7.1875 0.0625 C7.6825 1.5475 7.6825 1.5475 8.1875 3.0625 C7.1975 3.0625 6.2075 3.0625 5.1875 3.0625 C5.1875 4.3825 5.1875 5.7025 5.1875 7.0625 C7.8275 6.7325 10.4675 6.4025 13.1875 6.0625 C12.5 8 12.5 8 11.1875 10.0625 C8.5625 10.8125 8.5625 10.8125 6.1875 11.0625 C6.1875 11.3925 6.1875 11.7225 6.1875 12.0625 C9.1575 12.5575 9.1575 12.5575 12.1875 13.0625 C11.1897242 16.05582739 10.4352975 17.01016315 8.1875 19.0625 C10.20795442 18.46066251 12.20861039 17.78943904 14.1875 17.0625 C14.5175 16.4025 14.8475 15.7425 15.1875 15.0625 C26.5725 14.5675 26.5725 14.5675 38.1875 14.0625 C38.6825 16.5375 38.6825 16.5375 39.1875 19.0625 C37.90140795 19.5564339 36.60808372 20.03152769 35.3125 20.5 C34.59320313 20.76683594 33.87390625 21.03367188 33.1328125 21.30859375 C23.51445624 23.7705868 13.35829333 23.22601358 3.5 23.1875 C2.72737823 23.18495209 1.95475647 23.18240417 1.15872192 23.17977905 C-3.47268853 23.16189901 -8.10377228 23.12807905 -12.73498535 23.08209229 C-14.62114214 23.06430463 -16.50734953 23.05210073 -18.39355469 23.04052734 C-33.44039567 22.90474215 -46.84418252 20.90527871 -60.8125 15.0625 C-57.07093006 13.81531002 -53.72880801 13.58227618 -49.8125 14.0625 C-48.25 15.4375 -48.25 15.4375 -46.8125 17.0625 C-44.50261685 17.80636068 -42.16934056 18.48440703 -39.8125 19.0625 C-39.4825 18.4025 -39.1525 17.7425 -38.8125 17.0625 C-37.8225 17.7225 -36.8325 18.3825 -35.8125 19.0625 C-33.53337062 19.51644552 -33.53337062 19.51644552 -31.125 19.6875 C-30.31675781 19.76226562 -29.50851563 19.83703125 -28.67578125 19.9140625 C-28.06089844 19.96304688 -27.44601563 20.01203125 -26.8125 20.0625 C-27.13476562 19.52753906 -27.45703125 18.99257812 -27.7890625 18.44140625 C-29.0503898 15.50954241 -29.14802741 13.18543784 -29.1875 10 C-29.21585938 8.95714844 -29.24421875 7.91429687 -29.2734375 6.83984375 C-28.8125 4.0625 -28.8125 4.0625 -27.16015625 2.19921875 C-24.20243219 0.76710943 -22.14717644 0.79720492 -18.875 0.9375 C-14.62153861 1.10648928 -14.62153861 1.10648928 -10.421875 0.57421875 C-6.94447972 -0.10772553 -3.52646582 -0.04386991 0 0 Z " fill="#EEB79A" transform="translate(135.8125,196.9375)"/>
<path d="M0 0 C0.556875 0.28875 1.11375 0.5775 1.6875 0.875 C4.12171315 2.21486464 4.12171315 2.21486464 7.625 2.4375 C8.73875 2.623125 9.8525 2.80875 11 3 C11.66 3.99 12.32 4.98 13 6 C13.65871094 6.31453125 14.31742188 6.6290625 14.99609375 6.953125 C17.45117781 8.23570303 17.94467667 9.25304398 19.0625 11.75 C20.20921413 14.2700516 21.3494802 16.59910892 22.75 19 C25.28732121 25.08957091 24.19094515 30.32833645 22.14453125 36.3359375 C20.53031518 38.68288646 18.65067543 39.14102498 16 40 C16.04382813 39.13117188 16.08765625 38.26234375 16.1328125 37.3671875 C16.28072099 30.51677155 16.28072099 30.51677155 12.953125 24.87109375 C10.35659018 23.30137042 7.82833597 22.09334182 5 21 C3.845 20.54625 2.69 20.0925 1.5 19.625 C-5.6278347 18.35217238 -12.78921534 17.77666643 -19 22 C-20.29927921 24.56502863 -21.2339247 27.07267946 -22.078125 29.8203125 C-22.38234375 30.53960937 -22.6865625 31.25890625 -23 32 C-24.485 32.495 -24.485 32.495 -26 33 C-26.66 32.67 -27.32 32.34 -28 32 C-28.08133791 30.08404032 -28.13934367 28.16708068 -28.1875 26.25 C-28.22230469 25.18265625 -28.25710937 24.1153125 -28.29296875 23.015625 C-27.96368304 19.62617739 -27.17921945 18.52529896 -25 16 C-24.54625 14.865625 -24.0925 13.73125 -23.625 12.5625 C-21.44361555 7.78023409 -19.07065319 4.941206 -14.25 2.75 C-10.81163722 1.95653167 -7.46537075 1.5387809 -3.953125 1.24609375 C-1.92370233 1.10013932 -1.92370233 1.10013932 0 0 Z " fill="#52413C" transform="translate(150,42)"/>
<path d="M0 0 C1.32 0.33 2.64 0.66 4 1 C4 2.65 4 4.3 4 6 C3.34 6 2.68 6 2 6 C1.773125 6.556875 1.54625 7.11375 1.3125 7.6875 C-0.37550036 10.66159588 -2.46676517 12.72008865 -5 15 C-5.66 15 -6.32 15 -7 15 C-7.66 16.32 -8.32 17.64 -9 19 C-9.99 19 -10.98 19 -12 19 C-15 15.55555556 -15 15.55555556 -15 14 C-15.54377792 14.10022461 -16.08755585 14.20044922 -16.64781189 14.30371094 C-22.34072121 15.35135859 -28.03559022 16.38780916 -33.73168945 17.41796875 C-35.85329927 17.80315783 -37.97440453 18.19113743 -40.0949707 18.58203125 C-43.15445555 19.14548817 -46.21565322 19.69867026 -49.27734375 20.25 C-50.21521225 20.42499023 -51.15308075 20.59998047 -52.11936951 20.78027344 C-60.77176174 22.31963799 -67.53146887 22.44284552 -76 20 C-79.52114913 20.16377438 -80.66108731 20.69772652 -83.3125 23.0625 C-83.869375 23.701875 -84.42625 24.34125 -85 25 C-85.66 24.67 -86.32 24.34 -87 24 C-85.35 22.02 -83.7 20.04 -82 18 C-83.13179687 17.81824219 -84.26359375 17.63648438 -85.4296875 17.44921875 C-86.91157342 17.19598508 -88.39333823 16.94204189 -89.875 16.6875 C-90.62136719 16.56955078 -91.36773437 16.45160156 -92.13671875 16.33007812 C-94.11057568 15.98331947 -96.05893159 15.49860425 -98 15 C-98.66 14.01 -99.32 13.02 -100 12 C-98.88665283 12.01047363 -97.77330566 12.02094727 -96.6262207 12.03173828 C-92.43468533 12.06836005 -88.24316363 12.09105146 -84.05151367 12.10986328 C-82.24875498 12.11982594 -80.44601204 12.13340096 -78.64331055 12.15087891 C-68.21640083 12.24932793 -58.27705317 12.00865896 -48 10 C-46.00073321 9.66229684 -44.00091418 9.32780111 -42 9 C-42.495 6.525 -42.495 6.525 -43 4 C-36.9453125 3.8046875 -36.9453125 3.8046875 -35 4 C-34.01 4.99 -34.01 4.99 -33 6 C-30.28898064 6.79873043 -27.62464823 7.49370321 -24.875 8.125 C-24.14023438 8.30675781 -23.40546875 8.48851562 -22.6484375 8.67578125 C-17.65226753 9.84565908 -13.13272737 10.35989998 -8 10 C-4.38214345 7.18611157 -2.17490228 4.00639893 0 0 Z " fill="#EBE7E3" transform="translate(217,207)"/>
<path d="M0 0 C0.33 0 0.66 0 1 0 C1 2.66666667 1 5.33333333 1 8 C1.86625 8.99 2.7325 9.98 3.625 11 C15.22205251 26.12299722 14.39630689 46.06282684 13 64 C11.515 64.495 11.515 64.495 10 65 C9.89042969 64.20078125 9.78085938 63.4015625 9.66796875 62.578125 C8.0393358 51.13181981 8.0393358 51.13181981 5 40 C4.34 39.67 3.68 39.34 3 39 C3.33 38.01 3.66 37.02 4 36 C3.34 36 2.68 36 2 36 C2 39.63 2 43.26 2 47 C1.34 47 0.68 47 0 47 C-0.66 42.71 -1.32 38.42 -2 34 C-4.64 34 -7.28 34 -10 34 C-11.57554035 36.88628401 -12.46276373 39.53342384 -13.125 42.75 C-13.29257813 43.54921875 -13.46015625 44.3484375 -13.6328125 45.171875 C-13.75398438 45.77515625 -13.87515625 46.3784375 -14 47 C-14.66 47 -15.32 47 -16 47 C-16.86037701 36.25484718 -16.86037701 36.25484718 -13.6875 32.3125 C-11 30 -11 30 -8 30 C-7.91860858 27.60347472 -7.85932991 25.20974564 -7.8125 22.8125 C-7.78736328 22.13896484 -7.76222656 21.46542969 -7.73632812 20.77148438 C-7.67076522 16.29135252 -8.33256351 13.60559001 -11 10 C-9.73461631 9.15841464 -8.46246221 8.32700252 -7.1875 7.5 C-6.12595703 6.80390625 -6.12595703 6.80390625 -5.04296875 6.09375 C-3 5 -3 5 0 5 C0 3.35 0 1.7 0 0 Z " fill="#E5E0DA" transform="translate(127,110)"/>
<path d="M0 0 C1.32 0.33 2.64 0.66 4 1 C5.33583899 5.84241633 6.25328119 9.93437617 6 15 C9.34373475 14.44271087 12.03312999 13.64826111 15 12 C16 13 16 13 16.11352539 15.13305664 C16.10828857 16.04949951 16.10305176 16.96594238 16.09765625 17.91015625 C16.09443359 18.89951172 16.09121094 19.88886719 16.08789062 20.90820312 C16.07951172 21.94912109 16.07113281 22.99003906 16.0625 24.0625 C16.05798828 25.10728516 16.05347656 26.15207031 16.04882812 27.22851562 C16.03699913 29.8190666 16.02051689 32.40950559 16 35 C15.01 35 14.02 35 13 35 C12.01 39.62 11.02 44.24 10 49 C11.423125 48.71125 12.84625 48.4225 14.3125 48.125 C15.51326172 47.88136719 15.51326172 47.88136719 16.73828125 47.6328125 C19.25301118 47.05521001 19.25301118 47.05521001 22 45 C22.07347656 45.90492188 22.07347656 45.90492188 22.1484375 46.828125 C22.22320312 47.62734375 22.29796875 48.4265625 22.375 49.25 C22.44460937 50.03890625 22.51421875 50.8278125 22.5859375 51.640625 C23.0212105 54.12085981 23.68369691 55.85982375 25 58 C25.66 58.33 26.32 58.66 27 59 C29.49016793 60.24508396 29.98686718 61.46716796 31 64 C27.535 64.99 27.535 64.99 24 66 C24 66.66 24 67.32 24 68 C20.99686252 69.50156874 18.20932478 69.09281204 14.875 69.0625 C12.95300781 69.04896484 12.95300781 69.04896484 10.9921875 69.03515625 C10.00476563 69.02355469 9.01734375 69.01195312 8 69 C7.41425012 62.96589997 6.94644014 56.97077539 6.89453125 50.90625 C6.72271802 34.76207673 4.40504626 20.01869578 0.53491211 4.36889648 C0 2 0 2 0 0 Z " fill="#D7CEC9" transform="translate(153,122)"/>
<path d="M0 0 C2.0625 0.6875 2.0625 0.6875 5.0625 2.6875 C5.3925 3.6775 5.7225 4.6675 6.0625 5.6875 C7.52485062 7.17379143 7.52485062 7.17379143 9.3125 8.5625 C18.0888498 15.84308587 18.0888498 15.84308587 20.0625 20.6875 C18.4125 21.3475 16.7625 22.0075 15.0625 22.6875 C15.0625 24.0075 15.0625 25.3275 15.0625 26.6875 C7.41166042 27.93661667 -0.21190986 27.77803426 -7.9375 27.6875 C-5.03657498 25.75354999 -4.04075263 25.38618059 -0.75 25.0625 C0.508125 24.93875 1.76625 24.815 3.0625 24.6875 C2.57157438 19.12367632 -0.53139619 15.77278997 -4.578125 12.265625 C-8.5335071 9.2367288 -12.08778499 7.77621153 -16.9375 6.6875 C-14.4417679 4.1917679 -12.28754555 3.73849468 -8.9375 2.6875 C-1.3980087 -0.22548527 -1.3980087 -0.22548527 0 0 Z " fill="#D7D2CC" transform="translate(193.9375,182.3125)"/>
<path d="M0 0 C6.86585707 2.2213067 11.64389543 6.69052341 15 13 C14.59765625 15.18359375 14.59765625 15.18359375 14 17 C13.24074219 17.13277344 12.48148438 17.26554687 11.69921875 17.40234375 C10.70535156 17.57894531 9.71148437 17.75554687 8.6875 17.9375 C7.20830078 18.19853516 7.20830078 18.19853516 5.69921875 18.46484375 C2.91810787 18.95746847 2.91810787 18.95746847 0 20 C-10.65146015 21.04325063 -21.30890593 21.12795192 -32 21 C-32.33 21.99 -32.66 22.98 -33 24 C-34.98 24.33 -36.96 24.66 -39 25 C-38.0022242 22.00667261 -37.2477975 21.05233685 -35 19 C-36.98 19 -38.96 19 -41 19 C-41 18.01 -41 17.02 -41 16 C-39.35 16 -37.7 16 -36 16 C-35.67 15.01 -35.34 14.02 -35 13 C-36.65 12.67 -38.3 12.34 -40 12 C-39 10 -39 10 -35.625 8.8125 C-32 8 -32 8 -29 9 C-29.66 11.31 -30.32 13.62 -31 16 C-29.02 15.34 -27.04 14.68 -25 14 C-25 14.66 -25 15.32 -25 16 C-21.37040434 17.81479783 -19.65006218 18.15365106 -15.5625 17.1875 C-12.65441945 16.21813982 -9.82069241 15.19665739 -7 14 C-7 14.66 -7 15.32 -7 16 C-4.69 16 -2.38 16 0 16 C2.01193027 9.74066138 2.01193027 6.25933862 0 0 Z " fill="#CD8264" transform="translate(183,191)"/>
<path d="M0 0 C0.84146888 2.93177118 1.12843601 5.5434917 1.1328125 8.58984375 C1.13474609 9.89018555 1.13474609 9.89018555 1.13671875 11.21679688 C1.13285156 12.11462891 1.12898438 13.01246094 1.125 13.9375 C1.12886719 14.83146484 1.13273437 15.72542969 1.13671875 16.64648438 C1.1304223 20.88714097 1.08681103 24.86839297 0 29 C-0.99 28.34 -1.98 27.68 -3 27 C-6.83536086 27.28765206 -8.43933024 28.23834744 -11 31 C-13.17257202 23.26021219 -15.14765666 12.45391758 -12.109375 4.73828125 C-9.10694712 0.03377277 -9.10694712 0.03377277 -6.625 -0.75 C-4.07496 -0.99286095 -2.40864929 -0.8028831 0 0 Z " fill="#F4F3EF" transform="translate(126,144)"/>
<path d="M0 0 C-0.33 0.66 -0.66 1.32 -1 2 C0.32 1.67 1.64 1.34 3 1 C3.02686553 2.97909398 3.04633375 4.95828971 3.0625 6.9375 C3.07410156 8.03964844 3.08570313 9.14179687 3.09765625 10.27734375 C3 13 3 13 2 14 C0.33382885 14.04063832 -1.33388095 14.042721 -3 14 C-3 14.66 -3 15.32 -3 16 C-4.0725 16.28875 -5.145 16.5775 -6.25 16.875 C-9.00170768 18.00675074 -9.8498779 18.71289149 -11.25 21.390625 C-11.90592678 23.1841748 -12.51724473 24.99480596 -13.078125 26.8203125 C-13.38234375 27.53960937 -13.6865625 28.25890625 -14 29 C-14.99 29.33 -15.98 29.66 -17 30 C-17.66 29.67 -18.32 29.34 -19 29 C-19.08133791 27.08404032 -19.13934367 25.16708068 -19.1875 23.25 C-19.22230469 22.18265625 -19.25710937 21.1153125 -19.29296875 20.015625 C-18.96368304 16.62617739 -18.17921945 15.52529896 -16 13 C-15.54625 11.865625 -15.0925 10.73125 -14.625 9.5625 C-12.33835561 4.54947191 -9.89146081 1.81592427 -4.8125 -0.375 C-2 -1 -2 -1 0 0 Z " fill="#745E58" transform="translate(141,45)"/>
<path d="M0 0 C1.32 0.33 2.64 0.66 4 1 C5.33583899 5.84241633 6.25328119 9.93437617 6 15 C9.34373475 14.44271087 12.03312999 13.64826111 15 12 C16 13 16 13 16.11352539 15.13305664 C16.10828857 16.04949951 16.10305176 16.96594238 16.09765625 17.91015625 C16.09443359 18.89951172 16.09121094 19.88886719 16.08789062 20.90820312 C16.07951172 21.94912109 16.07113281 22.99003906 16.0625 24.0625 C16.05798828 25.10728516 16.05347656 26.15207031 16.04882812 27.22851562 C16.03699913 29.8190666 16.02051689 32.40950559 16 35 C15.01 35 14.02 35 13 35 C11.68 40.61 10.36 46.22 9 52 C8.67 52 8.34 52 8 52 C7.96132812 50.63294922 7.96132812 50.63294922 7.921875 49.23828125 C7.44827708 38.42087425 5.70659927 28.10715546 3.51855469 17.51367188 C3.02486424 15.12052836 2.5445805 12.72518452 2.0703125 10.328125 C1.38874857 6.88366634 0.69775916 3.44122129 0 0 Z " fill="#E5E1DC" transform="translate(153,122)"/>
<path d="M0 0 C2.28108816 3.42163224 1.97206385 4.38864998 1.359375 8.26171875 C0.86894458 11.99858529 0.65782222 15.73881444 0.4375 19.5 C0.39391357 20.23114014 0.35032715 20.96228027 0.30541992 21.71557617 C0.20154148 23.47692982 0.10047681 25.23844904 0 27 C0.66 27.33 1.32 27.66 2 28 C2.625 30.0625 2.625 30.0625 3 32 C3.81984375 32.13277344 4.6396875 32.26554687 5.484375 32.40234375 C6.56203125 32.57894531 7.6396875 32.75554687 8.75 32.9375 C9.81734375 33.11152344 10.8846875 33.28554687 11.984375 33.46484375 C14.36347593 33.88704171 16.66915211 34.37202884 19 35 C19 35.66 19 36.32 19 37 C17.52093108 37.02689216 16.04172517 37.04634621 14.5625 37.0625 C13.32693359 37.07990234 13.32693359 37.07990234 12.06640625 37.09765625 C10 37 10 37 9 36 C2.92358608 35.1138563 -0.090214 36.94991013 -4.984375 40.4921875 C-5.64953125 40.98976562 -6.3146875 41.48734375 -7 42 C-7.99 42.66 -8.98 43.32 -10 44 C-10 41 -10 41 -9 38 C-9 37.34 -9 36.68 -9 36 C-9 33.66666667 -9 31.33333333 -9 29 C-8.01 28.67 -7.02 28.34 -6 28 C-5.87882812 26.83082031 -5.75765625 25.66164062 -5.6328125 24.45703125 C-5.46391599 22.90881329 -5.29462432 21.36063839 -5.125 19.8125 C-5.04636719 19.04357422 -4.96773438 18.27464844 -4.88671875 17.48242188 C-4.42108916 13.3096644 -3.70893808 9.87359298 -2 6 C-1.83201738 3.29113059 -1.83201738 3.29113059 -2 1 C-1.34 0.67 -0.68 0.34 0 0 Z " fill="#D0C9C3" transform="translate(108,159)"/>
<path d="M0 0 C0.08333357 4.8333472 -0.04738513 9.23692563 -1 14 C-2.32 14 -3.64 14 -5 14 C-5.38091797 15.33804688 -5.38091797 15.33804688 -5.76953125 16.703125 C-6.11371094 17.87359375 -6.45789063 19.0440625 -6.8125 20.25 C-7.31716797 21.99023438 -7.31716797 21.99023438 -7.83203125 23.765625 C-8.89961586 26.72201315 -9.96429083 28.64347706 -12 31 C-17.87797414 30.20264003 -21.01658805 27.20747888 -25 23 C-26.70823555 20.68366973 -27.80486019 18.65009263 -29 16 C-28.67 15.34 -28.34 14.68 -28 14 C-22.96318503 17.07122864 -19.05489233 20.72916666 -15 25 C-14.9175 23.9275 -14.835 22.855 -14.75 21.75 C-14 18 -14 18 -12.0625 16.125 C-9.71613652 13.7075346 -9.64064607 12.78927489 -9.125 9.5625 C-8.48550487 6.03946319 -7.75319592 4.2650811 -5 1.9375 C-2 0 -2 0 0 0 Z " fill="#BA6E54" transform="translate(159,105)"/>
<path d="M0 0 C6.875 3.875 6.875 3.875 8 5 C8.07258946 7.18639453 8.08373783 9.37500389 8.0625 11.5625 C8.05347656 12.76003906 8.04445312 13.95757812 8.03515625 15.19140625 C8.02355469 16.11824219 8.01195312 17.04507813 8 18 C9.65 17.34 11.3 16.68 13 16 C13 16.66 13 17.32 13 18 C13.99 18.33 14.98 18.66 16 19 C17.32727273 24.30909091 17.32727273 24.30909091 15.875 27.375 C14 29 14 29 11.3125 29.25 C10.549375 29.1675 9.78625 29.085 9 29 C8.938125 28.278125 8.87625 27.55625 8.8125 26.8125 C7.75168262 23.14043984 5.73934833 21.60572158 3 19 C2.690625 18.2575 2.38125 17.515 2.0625 16.75 C1.711875 16.1725 1.36125 15.595 1 15 C-2.05908413 14.18415432 -2.05908413 14.18415432 -5 14 C-5.33 13.01 -5.66 12.02 -6 11 C-5.21625 10.855625 -4.4325 10.71125 -3.625 10.5625 C-1.03578982 10.12201075 -1.03578982 10.12201075 1 9 C0.67 6.03 0.34 3.06 0 0 Z " fill="#C38467" transform="translate(158,64)"/>
<path d="M0 0 C3.02550352 3.02550352 3.38269319 3.42011174 3.94921875 7.30859375 C4.13774414 8.55286133 4.13774414 8.55286133 4.33007812 9.82226562 C4.44802734 10.68529297 4.56597656 11.54832031 4.6875 12.4375 C4.88182617 13.72624023 4.88182617 13.72624023 5.08007812 15.04101562 C5.62640546 18.76702586 6 22.21943244 6 26 C6.66 26 7.32 26 8 26 C7.34 31.28 6.68 36.56 6 42 C4 42 4 42 2.2734375 40.3203125 C1.64695313 39.59585938 1.02046875 38.87140625 0.375 38.125 C-0.25664062 37.40570313 -0.88828125 36.68640625 -1.5390625 35.9453125 C-3 34 -3 34 -3 32 C-2.34 31.67 -1.68 31.34 -1 31 C-0.52425562 28.45975996 -0.15992453 25.99948536 0.125 23.4375 C0.21136719 22.72658203 0.29773438 22.01566406 0.38671875 21.28320312 C0.59934783 19.52310688 0.80072697 17.76165836 1 16 C0.34 15.67 -0.32 15.34 -1 15 C-0.67 10.05 -0.34 5.1 0 0 Z " fill="#E1DCD7" transform="translate(131,149)"/>
<path d="M0 0 C0.99 0.33 1.98 0.66 3 1 C3.6875 3.0625 3.6875 3.0625 4 5 C3.34 4.67 2.68 4.34 2 4 C1.855625 4.94875 1.71125 5.8975 1.5625 6.875 C1 10 1 10 0 12 C-0.22622081 13.70363822 -0.40888473 15.41328701 -0.5625 17.125 C-0.64628906 18.03507812 -0.73007813 18.94515625 -0.81640625 19.8828125 C-0.87699219 20.58148438 -0.93757813 21.28015625 -1 22 C-2.48117801 21.71872579 -3.95993249 21.42466268 -5.4375 21.125 C-6.26121094 20.96257812 -7.08492187 20.80015625 -7.93359375 20.6328125 C-8.61550781 20.42398438 -9.29742187 20.21515625 -10 20 C-10.33 19.34 -10.66 18.68 -11 18 C-11.86882812 18.04640625 -12.73765625 18.0928125 -13.6328125 18.140625 C-25.07908612 18.49912127 -25.07908612 18.49912127 -30 14 C-26.06322574 12.68774191 -24.2205738 13.6606046 -20.3125 14.9375 C-19.13300781 15.31777344 -17.95351562 15.69804687 -16.73828125 16.08984375 C-15.83464844 16.39019531 -14.93101563 16.69054687 -14 17 C-13.67 15.68 -13.34 14.36 -13 13 C-11.68 13 -10.36 13 -9 13 C-8.9071875 11.8553125 -8.9071875 11.8553125 -8.8125 10.6875 C-7.73369058 7.11913037 -6.16323169 6.80756096 -3 5 C-1.19203897 2.43389334 -1.19203897 2.43389334 0 0 Z " fill="#FBFAF6" transform="translate(97,194)"/>
<path d="M0 0 C6.86585707 2.2213067 11.64389543 6.69052341 15 13 C14.59765625 15.18359375 14.59765625 15.18359375 14 17 C12.86111328 17.19916016 12.86111328 17.19916016 11.69921875 17.40234375 C10.70535156 17.57894531 9.71148437 17.75554687 8.6875 17.9375 C7.70136719 18.11152344 6.71523437 18.28554687 5.69921875 18.46484375 C2.91810787 18.95746847 2.91810787 18.95746847 0 20 C-2.57265818 20.07029121 -5.11641431 20.09370832 -7.6875 20.0625 C-8.38939453 20.05798828 -9.09128906 20.05347656 -9.81445312 20.04882812 C-11.54300538 20.03706927 -13.27151365 20.01913454 -15 20 C-11.59568053 17.73045369 -9.83475798 17.63450051 -5.8125 17.375 C-4.72582031 17.30023438 -3.63914063 17.22546875 -2.51953125 17.1484375 C-1.68808594 17.09945312 -0.85664063 17.05046875 0 17 C0.15082031 16.38640625 0.30164063 15.7728125 0.45703125 15.140625 C0.83072649 13.6673517 1.24334875 12.20358592 1.6875 10.75 C2.13463247 6.81523422 1.09391225 3.79651897 0 0 Z " fill="#A36B58" transform="translate(183,191)"/>
<path d="M0 0 C1.32 0.33 2.64 0.66 4 1 C4.18175781 1.88042969 4.36351563 2.76085937 4.55078125 3.66796875 C4.92783203 5.41013672 4.92783203 5.41013672 5.3125 7.1875 C5.67794922 8.91033203 5.67794922 8.91033203 6.05078125 10.66796875 C6.82892224 13.99081438 6.82892224 13.99081438 8.59375 16.53125 C10.36832425 19.64661368 10.30471772 21.75689593 10.1875 25.3125 C10.16042969 26.38113281 10.13335937 27.44976562 10.10546875 28.55078125 C10.07066406 29.35902344 10.03585938 30.16726562 10 31 C9.34 31 8.68 31 8 31 C7.34 26.71 6.68 22.42 6 18 C3.36 18 0.72 18 -2 18 C-3.57554035 20.88628401 -4.46276373 23.53342384 -5.125 26.75 C-5.29257813 27.54921875 -5.46015625 28.3484375 -5.6328125 29.171875 C-5.75398438 29.77515625 -5.87515625 30.3784375 -6 31 C-6.66 31 -7.32 31 -8 31 C-8.86037701 20.25484718 -8.86037701 20.25484718 -5.6875 16.3125 C-3 14 -3 14 0 14 C0 9.38 0 4.76 0 0 Z " fill="#9CBEC4" transform="translate(119,126)"/>
<path d="M0 0 C0.66 0 1.32 0 2 0 C3.32 6.27 4.64 12.54 6 19 C4.68 19.33 3.36 19.66 2 20 C0.44532791 21.83613607 0.44532791 21.83613607 -0.75 24.0625 C-1.17796875 24.79597656 -1.6059375 25.52945313 -2.046875 26.28515625 C-2.51867187 27.13400391 -2.51867187 27.13400391 -3 28 C-3.433125 27.1028125 -3.433125 27.1028125 -3.875 26.1875 C-5.04742026 23.80672208 -5.04742026 23.80672208 -7 21 C-7.68302257 13.9421001 -7.68302257 13.9421001 -5.1875 10.5 C-4.465625 9.675 -3.74375 8.85 -3 8 C-1.82214968 5.37324594 -0.92594524 2.73153846 0 0 Z " fill="#C8899B" transform="translate(152,124)"/>
<path d="M0 0 C2.43929746 1.92576115 4.80090595 3.80090595 7 6 C9.06874034 6.6425235 9.06874034 6.6425235 11 7 C11.2493357 8.60115576 11.47378648 10.20620159 11.6875 11.8125 C11.81511719 12.70582031 11.94273437 13.59914063 12.07421875 14.51953125 C12 17 12 17 10.51953125 18.82421875 C10.01808594 19.21222656 9.51664063 19.60023437 9 20 C8.01 19.34 7.02 18.68 6 18 C3.70390026 17.21826194 1.38956399 16.54872528 -0.94140625 15.87890625 C-3 15 -3 15 -5 12 C-4.01 12 -3.02 12 -2 12 C-1.34 8.04 -0.68 4.08 0 0 Z " fill="#EDB295" transform="translate(131,104)"/>
<path d="M0 0 C0 0.66 0 1.32 0 2 C-1.0725 2.20625 -2.145 2.4125 -3.25 2.625 C-7.10756864 3.71771764 -7.10756864 3.71771764 -9.4375 6.625 C-11.44932829 10.97054911 -11.62225895 13.25527551 -11 18 C-9.11922127 19.91256712 -9.11922127 19.91256712 -7 21 C-7 21.66 -7 22.32 -7 23 C-14.8408377 23.45235602 -14.8408377 23.45235602 -18.5625 22 C-20.38520117 19.46406794 -20.73811037 17.29397967 -20.578125 14.19140625 C-19.10113874 8.59282997 -14.18022165 4.50654676 -9.4375 1.5 C-5.94357023 -0.0246239 -3.75991358 -0.36682084 0 0 Z " fill="#984B3A" transform="translate(116,194)"/>
<path d="M0 0 C3.3 0 6.6 0 10 0 C9.34 0.66 8.68 1.32 8 2 C7.01 2 6.02 2 5 2 C4.67 3.32 4.34 4.64 4 6 C2.35 6.33 0.7 6.66 -1 7 C-1.33 8.65 -1.66 10.3 -2 12 C-2.99 12 -3.98 12 -5 12 C-5 10.68 -5 9.36 -5 8 C-4.01 8 -3.02 8 -2 8 C-2.495 7.01 -2.495 7.01 -3 6 C-5.39591038 5.97287649 -7.79150957 5.9531018 -10.1875 5.9375 C-10.86103516 5.92912109 -11.53457031 5.92074219 -12.22851562 5.91210938 C-15.97846542 5.89381694 -19.34200206 6.24811135 -23 7 C-26.09201987 7.02810927 -29.16740159 6.93617825 -32.2578125 6.83984375 C-35.21898191 6.78108973 -35.21898191 6.78108973 -38 9 C-38.40341158 11.82655582 -38.40341158 11.82655582 -38.25 15 C-38.23453125 16.0725 -38.2190625 17.145 -38.203125 18.25 C-38.17807872 20.96060293 -38.17807872 20.96060293 -37 23 C-40.875 21.125 -40.875 21.125 -42 20 C-42.51617526 13.90913193 -42.05630193 10.86756232 -38 6 C-34.77208445 3.8480563 -33.71599191 3.79913557 -30 4 C-29.67 3.34 -29.34 2.68 -29 2 C-28.67 2.33 -28.34 2.66 -28 3 C-25.85441173 3.08775605 -23.70595579 3.10695219 -21.55859375 3.09765625 C-20.25341797 3.09443359 -18.94824219 3.09121094 -17.60351562 3.08789062 C-16.2148431 3.07953401 -14.82617123 3.07106905 -13.4375 3.0625 C-12.04492344 3.05748666 -10.65234519 3.05292347 -9.25976562 3.04882812 C-5.8398013 3.03699434 -2.41992156 3.0205088 1 3 C0.505 1.515 0.505 1.515 0 0 Z " fill="#E2A789" transform="translate(146,192)"/>
<path d="M0 0 C2.5 1.375 2.5 1.375 5 3 C5 3.66 5 4.32 5 5 C6.98 5.66 8.96 6.32 11 7 C10.98839844 7.97582031 10.97679687 8.95164063 10.96484375 9.95703125 C10.95582031 11.22933594 10.94679687 12.50164062 10.9375 13.8125 C10.92589844 15.07707031 10.91429687 16.34164062 10.90234375 17.64453125 C10.83840884 20.99605237 10.83840884 20.99605237 12 24 C10.33819262 27.40670513 9.19665902 28.86889399 6 31 C5.92483154 30.45174561 5.84966309 29.90349121 5.7722168 29.33862305 C3.74526626 14.4905389 3.74526626 14.4905389 0 0 Z " fill="#AF7081" transform="translate(135,129)"/>
<path d="M0 0 C9.59453303 2.89066059 9.59453303 2.89066059 13 6 C12.33333333 8.66666667 11.66666667 11.33333333 11 14 C11.99 14 12.98 14 14 14 C14 14.66 14 15.32 14 16 C11.8125 18.1875 11.8125 18.1875 9 20 C6.1875 19.75 6.1875 19.75 4 19 C3.90912109 18.11248047 3.90912109 18.11248047 3.81640625 17.20703125 C3.37987629 13.09021792 2.91328654 9.04455467 2 5 C1.01 4.67 0.02 4.34 -1 4 C-0.67 2.68 -0.34 1.36 0 0 Z " fill="#DCD6D0" transform="translate(154,118)"/>
<path d="M0 0 C0.99 0.33 1.98 0.66 3 1 C5.03707663 7.11122989 4.16591892 12.40180526 2.14453125 18.3359375 C0.53031518 20.68288646 -1.34932457 21.14102498 -4 22 C-4.16858098 19.9168207 -4.33479255 17.83344956 -4.5 15.75 C-4.5928125 14.58984375 -4.685625 13.4296875 -4.78125 12.234375 C-4.94404644 9.82731342 -5 7.41256049 -5 5 C-2.5 2.25 -2.5 2.25 0 0 Z " fill="#4D3B36" transform="translate(170,60)"/>
<path d="M0 0 C0.33 0 0.66 0 1 0 C1.33 3.63 1.66 7.26 2 11 C-0.27942645 12.78080192 -2.05391971 13.99447813 -5.0078125 14.01171875 C-8.12750919 13.62607359 -11.01867561 12.9937748 -14 12 C-14 11.01 -14 10.02 -14 9 C-13.34 9 -12.68 9 -12 9 C-11.9175 8.401875 -11.835 7.80375 -11.75 7.1875 C-10.75764721 4.29313769 -9.69075795 3.42012225 -7 2 C-2.58974359 2.41025641 -2.58974359 2.41025641 -1 4 C-0.67 2.68 -0.34 1.36 0 0 Z " fill="#C9D6D5" transform="translate(126,168)"/>
<path d="M0 0 C3 2 3 2 3.68139648 3.66308594 C4.12559206 6.92120092 4.11070467 10.10242274 4.09765625 13.390625 C4.0962413 14.09523865 4.09482635 14.79985229 4.09336853 15.52581787 C4.08778933 17.76725584 4.07524073 20.00859243 4.0625 22.25 C4.05748231 23.77343605 4.05291987 25.29687368 4.04882812 26.8203125 C4.03782674 30.54690772 4.02057646 34.27344396 4 38 C4.99 38 5.98 38 7 38 C7 38.66 7 39.32 7 40 C4.03 40 1.06 40 -2 40 C-2.33 40.66 -2.66 41.32 -3 42 C-2.85892253 40.54119891 -2.71197585 39.08296449 -2.5625 37.625 C-2.48128906 36.81289062 -2.40007812 36.00078125 -2.31640625 35.1640625 C-2 33 -2 33 -1 31 C-0.01 31 0.98 31 2 31 C1.67 22.75 1.34 14.5 1 6 C0.01 6 -0.98 6 -2 6 C-1.125 1.125 -1.125 1.125 0 0 Z " fill="#8EA2A3" transform="translate(167,126)"/>
<path d="M0 0 C2.01822917 0.06510417 4.03645833 0.13020833 6.0546875 0.1953125 C6.0546875 2.1753125 6.0546875 4.1553125 6.0546875 6.1953125 C5.3946875 6.1953125 4.7346875 6.1953125 4.0546875 6.1953125 C4.0546875 6.8553125 4.0546875 7.5153125 4.0546875 8.1953125 C1.72135417 8.1953125 -0.61197917 8.1953125 -2.9453125 8.1953125 C-3.6053125 10.5053125 -4.2653125 12.8153125 -4.9453125 15.1953125 C-3.9553125 15.5253125 -2.9653125 15.8553125 -1.9453125 16.1953125 C-5.3203125 16.3203125 -5.3203125 16.3203125 -8.9453125 16.1953125 C-9.6053125 15.5353125 -10.2653125 14.8753125 -10.9453125 14.1953125 C-9.6253125 14.1953125 -8.3053125 14.1953125 -6.9453125 14.1953125 C-6.9453125 13.2053125 -6.9453125 12.2153125 -6.9453125 11.1953125 C-9.4203125 10.2053125 -9.4203125 10.2053125 -11.9453125 9.1953125 C-10.6253125 8.8653125 -9.3053125 8.5353125 -7.9453125 8.1953125 C-7.9453125 6.5453125 -7.9453125 4.8953125 -7.9453125 3.1953125 C-7.3265625 3.0715625 -6.7078125 2.9478125 -6.0703125 2.8203125 C-3.45837358 2.05209517 -2.69666766 0.27074977 0 0 Z " fill="#C78568" transform="translate(153.9453125,82.8046875)"/>
<path d="M0 0 C1.32 0.33 2.64 0.66 4 1 C4.69897461 2.77050781 4.69897461 2.77050781 5 5 C3.73657227 6.83105469 3.73657227 6.83105469 1.81640625 8.671875 C1.13642578 9.33574219 0.45644531 9.99960938 -0.24414062 10.68359375 C-0.96794922 11.36550781 -1.69175781 12.04742187 -2.4375 12.75 C-3.15744141 13.44738281 -3.87738281 14.14476563 -4.61914062 14.86328125 C-6.40211461 16.58721636 -8.19567826 18.29846609 -10 20 C-12 18.6875 -12 18.6875 -14 17 C-14 16.01 -14 15.02 -14 14 C-13.21625 13.9175 -12.4325 13.835 -11.625 13.75 C-8.90274438 13.30277024 -8.90274438 13.30277024 -8 11.25 C-7.67 10.5075 -7.34 9.765 -7 9 C-5.33333333 7.33333333 -3.66666667 5.66666667 -2 4 C-0.70480005 1.83379456 -0.70480005 1.83379456 0 0 Z " fill="#EBEBEB" transform="translate(84,74)"/>
<path d="M0 0 C1.32 0.33 2.64 0.66 4 1 C4.42726291 4.43641454 4.25858244 5.66533261 2.1015625 8.45703125 C1.28429687 9.23433594 0.46703125 10.01164062 -0.375 10.8125 C-1.59316406 11.99779297 -1.59316406 11.99779297 -2.8359375 13.20703125 C-5 15 -5 15 -7 15 C-7.66 16.32 -8.32 17.64 -9 19 C-9.99 19 -10.98 19 -12 19 C-12.66 18.34 -13.32 17.68 -14 17 C-12.92075721 13.76227162 -12.24856932 13.13000136 -9.6875 11.0625 C-3.88608727 6.31171214 -3.88608727 6.31171214 0 0 Z " fill="#EBEBEB" transform="translate(217,74)"/>
<path d="M0 0 C1.32 0.66 2.64 1.32 4 2 C4 6 4 6 2.3203125 8.140625 C1.23363281 9.18476562 1.23363281 9.18476562 0.125 10.25 C-0.59429687 10.95640625 -1.31359375 11.6628125 -2.0546875 12.390625 C-4 14 -4 14 -6 14 C-6.33 14.99 -6.66 15.98 -7 17 C-8.65 16.67 -10.3 16.34 -12 16 C-11.8125 13.6875 -11.8125 13.6875 -11 11 C-9.35666496 9.96210419 -7.68756133 8.96432076 -6 8 C-4.99431758 6.33675599 -3.99335201 4.67063747 -3 3 C-2.01 3 -1.02 3 0 3 C0 2.01 0 1.02 0 0 Z " fill="#EBEBEB" transform="translate(100,58)"/>
<path d="M0 0 C0.33 0 0.66 0 1 0 C1.03738281 1.13179687 1.07476562 2.26359375 1.11328125 3.4296875 C1.17893082 4.91149205 1.24537851 6.39326139 1.3125 7.875 C1.33505859 8.62136719 1.35761719 9.36773437 1.38085938 10.13671875 C1.47811945 12.099604 1.73042294 14.05328322 2 16 C2.99 16.66 3.98 17.32 5 18 C4.38799076 25.4665127 4.38799076 25.4665127 2.75 27.71875 C0.54889736 29.33027158 -0.98373492 29.49157499 -3.6875 29.6875 C-4.49574219 29.75324219 -5.30398437 29.81898438 -6.13671875 29.88671875 C-7.05904297 29.94279297 -7.05904297 29.94279297 -8 30 C-8.25 23.375 -8.25 23.375 -6 20 C-6 21.65 -6 23.3 -6 25 C-3.03 25 -0.06 25 3 25 C3 24.34 3 23.68 3 23 C2.01 23 1.02 23 0 23 C-1.32575494 18.17818019 -0.90062439 13.61167933 -0.5625 8.6875 C-0.51029297 7.85154297 -0.45808594 7.01558594 -0.40429688 6.15429688 C-0.27532629 4.10249211 -0.13844979 2.05118694 0 0 Z " fill="#BABCB4" transform="translate(171,141)"/>
<path d="M0 0 C0.66 0 1.32 0 2 0 C2 9.57 2 19.14 2 29 C0.02 29 -1.96 29 -4 29 C-3.88648483 27.18674449 -3.75887039 25.37436643 -3.625 23.5625 C-3.55539063 22.55316406 -3.48578125 21.54382813 -3.4140625 20.50390625 C-3.20910156 19.26447266 -3.20910156 19.26447266 -3 18 C-2.34 17.67 -1.68 17.34 -1 17 C-1.01160156 16.27554688 -1.02320313 15.55109375 -1.03515625 14.8046875 C-1.08231311 9.75216677 -1.07377564 4.96621233 0 0 Z " fill="#AE6177" transform="translate(158,162)"/>
<path d="M0 0 C0.66 0 1.32 0 2 0 C3 6.75 3 6.75 3 9 C3.66 9 4.32 9 5 9 C6.6875 10.5625 6.6875 10.5625 8 13 C7.89185194 15.54147936 7.56838109 17.54122553 7 20 C6.63068359 21.65515625 6.63068359 21.65515625 6.25390625 23.34375 C5.52159401 26.56732543 4.76871386 29.78493889 4 33 C3.67 33 3.34 33 3 33 C2.95101562 31.98421875 2.90203125 30.9684375 2.8515625 29.921875 C2.45224404 22.35695734 1.84673655 15.00469154 0.40234375 7.55078125 C-0.00168493 4.98931788 -0.06995696 2.58840749 0 0 Z " fill="#F4F0EC" transform="translate(158,141)"/>
<path d="M0 0 C0.33 1.65 0.66 3.3 1 5 C-4.89738492 7.29342747 -9.66606918 8.34548714 -16 8 C-16 7.67 -16 7.34 -16 7 C-14.02 6.67 -12.04 6.34 -10 6 C-11.73956658 4.26043342 -14.1936622 4.62809614 -16.5625 4.4375 C-17.57441406 4.35371094 -18.58632812 4.26992187 -19.62890625 4.18359375 C-20.80259766 4.09271484 -20.80259766 4.09271484 -22 4 C-22 3.34 -22 2.68 -22 2 C-19.64655194 1.66076424 -17.2924516 1.32849466 -14.9375 1 C-14.28072266 0.90460938 -13.62394531 0.80921875 -12.94726562 0.7109375 C-8.59861237 0.11112326 -4.38670929 -0.09127093 0 0 Z " fill="#CDC1B9" transform="translate(174,211)"/>
<path d="M0 0 C4.1858057 1.3374336 6.1788887 2.94323141 8.8125 6.4375 C9.41707031 7.21996094 10.02164063 8.00242188 10.64453125 8.80859375 C12 11 12 11 12 14 C9.03 14 6.06 14 3 14 C2.49528803 12.23050388 1.99639315 10.45934777 1.5 8.6875 C1.2215625 7.70136719 0.943125 6.71523437 0.65625 5.69921875 C0 3 0 3 0 0 Z " fill="#974A36" transform="translate(186,193)"/>
<path d="M0 0 C0.33 0 0.66 0 1 0 C1.19392201 5.52677733 0.7479503 9.75614911 -1 15 C-6.06232884 15.48990279 -10.32630846 13.7106322 -15 12 C-12.07175348 11.02391783 -10.04386724 10.91773332 -7 11 C-6.87625 10.360625 -6.7525 9.72125 -6.625 9.0625 C-6.41875 8.381875 -6.2125 7.70125 -6 7 C-5.34 6.67 -4.68 6.34 -4 6 C-2.96986723 4.35178756 -1.96885372 2.68496298 -1 1 C-0.67 0.67 -0.34 0.34 0 0 Z " fill="#F0EFEE" transform="translate(103,173)"/>
<path d="M0 0 C2.6123948 3.9185922 1.8543232 6.609728 1 11 C0.67829298 12.29461132 0.3450192 13.58640556 0 14.875 C-1.24091944 19.52381761 -1.6273593 24.21450891 -2 29 C-2.99 29.33 -3.98 29.66 -5 30 C-4.88576707 26.93675381 -4.75902148 23.87489086 -4.625 20.8125 C-4.57859375 19.51602539 -4.57859375 19.51602539 -4.53125 18.19335938 C-4.32411021 13.68806886 -3.94383547 10.13848842 -2 6 C-1.83201738 3.29113059 -1.83201738 3.29113059 -2 1 C-1.34 0.67 -0.68 0.34 0 0 Z " fill="#A09B94" transform="translate(108,159)"/>
<path d="M0 0 C1.32 0.33 2.64 0.66 4 1 C4 2.65 4 4.3 4 6 C3.34 6 2.68 6 2 6 C1.773125 6.556875 1.54625 7.11375 1.3125 7.6875 C-0.35896766 10.63246684 -2.55276352 12.68156544 -5 15 C-5.99 14.67 -6.98 14.34 -8 14 C-8 13.34 -8 12.68 -8 12 C-8.99 11.67 -9.98 11.34 -11 11 C-10.01 10.67 -9.02 10.34 -8 10 C-4.62690682 6.96421614 -2.16385252 3.98604411 0 0 Z " fill="#EBEBEB" transform="translate(217,207)"/>
<path d="M0 0 C2.42054679 0.80684893 4.80101817 1.66267898 7.1875 2.5625 C7.90292969 2.83191406 8.61835937 3.10132813 9.35546875 3.37890625 C9.89816406 3.58386719 10.44085938 3.78882813 11 4 C11 4.99 11 5.98 11 7 C9.13671875 8.53515625 9.13671875 8.53515625 6.6875 10.0625 C5.88699219 10.56910156 5.08648437 11.07570312 4.26171875 11.59765625 C3.51535156 12.06042969 2.76898438 12.52320313 2 13 C1.01 13.66 0.02 14.32 -1 15 C-1 12 -1 12 0 9 C0 8.34 0 7.68 0 7 C0 4.66666667 0 2.33333333 0 0 Z " fill="#DAD3CD" transform="translate(99,188)"/>
<path d="M0 0 C3.3 0.66 6.6 1.32 10 2 C9.34 2.495 8.68 2.99 8 3.5 C4.08476155 6.76269871 0.56121854 10.35925053 -3 14 C-5 12.6875 -5 12.6875 -7 11 C-7 10.01 -7 9.02 -7 8 C-5.33720673 6.9935725 -3.67016516 5.99414593 -2 5 C-0.48326485 2.66612416 -0.48326485 2.66612416 0 0 Z " fill="#EBEBEB" transform="translate(77,213)"/>
<path d="M0 0 C0.33 0.66 0.66 1.32 1 2 C4.62959566 3.81479783 6.34993782 4.15365106 10.4375 3.1875 C13.34558055 2.21813982 16.17930759 1.19665739 19 0 C19 0.66 19 1.32 19 2 C21.31 2 23.62 2 26 2 C22.81071358 3.81054502 19.92243753 4.48895852 16.3125 5.0625 C12.8482004 5.37052407 12.8482004 5.37052407 10 7 C7.46950598 7.07313567 4.96695163 7.09247527 2.4375 7.0625 C1.72658203 7.05798828 1.01566406 7.05347656 0.28320312 7.04882812 C-1.47790013 7.03700864 -3.23896036 7.01907263 -5 7 C-4.360625 6.690625 -3.72125 6.38125 -3.0625 6.0625 C-1.06389179 5.1654837 -1.06389179 5.1654837 0 4 C-1.65 4 -3.3 4 -5 4 C-5 3.34 -5 2.68 -5 2 C-3.35 1.34 -1.7 0.68 0 0 Z " fill="#BB765A" transform="translate(157,205)"/>
<path d="M0 0 C5.46864457 1.01591421 10.76390013 2.07091057 16 4 C16.33 2.68 16.66 1.36 17 0 C18.32 0.33 19.64 0.66 21 1 C21.33 2.65 21.66 4.3 22 6 C23.98 6 25.96 6 28 6 C28 4.35 28 2.7 28 1 C28.33 1 28.66 1 29 1 C29 3.64 29 6.28 29 9 C27.51882199 8.71872579 26.04006751 8.42466268 24.5625 8.125 C23.73878906 7.96257812 22.91507813 7.80015625 22.06640625 7.6328125 C21.38449219 7.42398438 20.70257813 7.21515625 20 7 C19.67 6.34 19.34 5.68 19 5 C18.13117188 5.04640625 17.26234375 5.0928125 16.3671875 5.140625 C5.78030937 5.47220508 5.78030937 5.47220508 2.1875 3.0625 C1.465625 2.381875 0.74375 1.70125 0 1 C0 0.67 0 0.34 0 0 Z " fill="#EDEBE7" transform="translate(67,207)"/>
<path d="M0 0 C0.08333357 4.8333472 -0.04738513 9.23692563 -1 14 C-1.66 14 -2.32 14 -3 14 C-3 13.34 -3 12.68 -3 12 C-4.65 12 -6.3 12 -8 12 C-8.375 8.8125 -8.375 8.8125 -8 5 C-5.91444487 2.39949299 -3.48957276 0 0 0 Z " fill="#2E211D" transform="translate(159,105)"/>
<path d="M0 0 C1.77007714 -0.08114106 3.54122098 -0.13925505 5.3125 -0.1875 C6.29863281 -0.22230469 7.28476563 -0.25710937 8.30078125 -0.29296875 C11.45380236 0.04925496 11.9742684 0.69803227 14 3 C16.30988315 3.74386068 18.64315944 4.42190703 21 5 C21.33 4.34 21.66 3.68 22 3 C23.25683594 3.72123047 23.25683594 3.72123047 24.5390625 4.45703125 C28.34741638 6.15488654 31.22826558 6.49189932 35.375 6.6875 C37.24285156 6.78611328 37.24285156 6.78611328 39.1484375 6.88671875 C40.08945313 6.92410156 41.03046875 6.96148437 42 7 C42 7.33 42 7.66 42 8 C26.89483262 8.75358374 14.02721073 6.88592764 0 1 C0 0.67 0 0.34 0 0 Z " fill="#C4C3C1" transform="translate(75,211)"/>
<path d="M0 0 C0 0.99 0 1.98 0 3 C-0.99 3 -1.98 3 -3 3 C-2.835 3.886875 -2.67 4.77375 -2.5 5.6875 C-2.07004243 8.53596892 -1.91558965 11.13004802 -2 14 C-6.875 11.125 -6.875 11.125 -8 10 C-8.46412214 2.80610687 -8.46412214 2.80610687 -6.8125 -0.0625 C-4.26271335 -1.38135516 -2.68253902 -0.7975116 0 0 Z " fill="#F1BEA3" transform="translate(124,74)"/>
<path d="M0 0 C3.3 0 6.6 0 10 0 C10 0.33 10 0.66 10 1 C7.03 1 4.06 1 1 1 C1 1.66 1 2.32 1 3 C1.77085937 2.96519531 2.54171875 2.93039063 3.3359375 2.89453125 C4.33882812 2.86746094 5.34171875 2.84039062 6.375 2.8125 C7.87160156 2.76029297 7.87160156 2.76029297 9.3984375 2.70703125 C10.25695312 2.80371094 11.11546875 2.90039062 12 3 C12.99 4.485 12.99 4.485 14 6 C7.85221129 7.6277833 2.35987804 8.20190089 -4 8 C-3.27876953 7.34064453 -3.27876953 7.34064453 -2.54296875 6.66796875 C-0.58017791 4.54616701 -0.38090083 2.81866616 0 0 Z " fill="#C5B1A6" transform="translate(151,212)"/>
<path d="M0 0 C5.52675903 0.63854985 10.62367351 1.93693354 15.9375 3.5625 C16.71673828 3.79646484 17.49597656 4.03042969 18.29882812 4.27148438 C20.20057187 4.84317421 22.10048226 5.42095691 24 6 C24 6.33 24 6.66 24 7 C15.16749011 7.56377723 8.21472661 6.26258646 0 3 C0 2.01 0 1.02 0 0 Z " fill="#89ACB3" transform="translate(117,189)"/>
<path d="M0 0 C8.94481527 13.41722291 7.18876669 30.72892015 6 46 C5.67 46 5.34 46 5 46 C4.63436254 43.31362232 4.28225274 40.62657141 3.9375 37.9375 C3.83373047 37.18533203 3.72996094 36.43316406 3.62304688 35.65820312 C3.01955124 30.85104823 3.26314882 26.8178731 4 22 C3.45872825 15.77929708 2.05976437 9.88504106 0 4 C0 2.68 0 1.36 0 0 Z " fill="#D0C3C0" transform="translate(134,128)"/>
<path d="M0 0 C0.99 0 1.98 0 3 0 C3 1.32 3 2.64 3 4 C3.66 4 4.32 4 5 4 C5.433125 4.45375 5.86625 4.9075 6.3125 5.375 C8.35628817 7.34309231 10.34530324 8.06726871 13 9 C13 9.66 13 10.32 13 11 C5.1591623 11.45235602 5.1591623 11.45235602 1.4375 10 C-0.87460278 6.78316135 -0.25501172 3.88892873 0 0 Z " fill="#69352A" transform="translate(96,206)"/>
<path d="M0 0 C1.875 0.9375 1.875 0.9375 3.875 3.9375 C3.51611965 6.89826291 3.02841979 7.78408021 0.875 9.9375 C-1.0625 9.875 -1.0625 9.875 -3.125 8.9375 C-4.875 6.375 -4.875 6.375 -6.125 3.9375 C-2.71630435 -0.0798913 -2.71630435 -0.0798913 0 0 Z " fill="#B9B4AE" transform="translate(188.125,169.0625)"/>
<path d="M0 0 C2.46800047 1.15173355 4.04783565 2.04783565 6 4 C5.63318342 6.93453261 5.13562754 7.86437246 3 10 C-0.29279709 9.68134222 -1.86535088 8.45484649 -4 6 C-2.84826645 3.53199953 -1.95216435 1.95216435 0 0 Z " fill="#DBDBDB" transform="translate(186,103)"/>
<path d="M0 0 C8.01701946 -0.41467342 15.21930149 1.14060121 23 3 C23 3.33 23 3.66 23 4 C13.26055028 4.12276617 3.70943816 3.83779436 -6 3 C-6 2.67 -6 2.34 -6 2 C-4.02 2 -2.04 2 0 2 C0 1.34 0 0.68 0 0 Z " fill="#C39079" transform="translate(109,215)"/>
<path d="M0 0 C1.32 0.66 2.64 1.32 4 2 C4 3.98 4 5.96 4 8 C3.01 8.33 2.02 8.66 1 9 C1 10.32 1 11.64 1 13 C-1.64 13 -4.28 13 -7 13 C-6.34 11.68 -5.68 10.36 -5 9 C-4.34 9 -3.68 9 -3 9 C-2.01 6.03 -1.02 3.06 0 0 Z " fill="#EEBB9F" transform="translate(141,83)"/>
<path d="M0 0 C0.99 0.33 1.98 0.66 3 1 C3 1.66 3 2.32 3 3 C3.928125 3.37125 3.928125 3.37125 4.875 3.75 C7.35068687 5.20628639 7.95125002 6.37812506 9 9 C6.36 9.99 3.72 10.98 1 12 C0.03929566 9.11788698 -0.10581883 7.30149956 -0.0625 4.3125 C-0.05347656 3.50425781 -0.04445312 2.69601563 -0.03515625 1.86328125 C-0.02355469 1.24839844 -0.01195312 0.63351563 0 0 Z " fill="#EAE9E7" transform="translate(175,177)"/>
<path d="M0 0 C0.33 0 0.66 0 1 0 C1 2.64 1 5.28 1 8 C0.01 8 -0.98 8 -2 8 C-4.10820797 8.3185177 -4.10820797 8.3185177 -6 9 C-6.33 9.66 -6.66 10.32 -7 11 C-9 9 -9 9 -9.25 6.5 C-9 4 -9 4 -7 2 C-2.44444444 2.55555556 -2.44444444 2.55555556 -1 4 C-0.67 2.68 -0.34 1.36 0 0 Z " fill="#D7D6D2" transform="translate(126,168)"/>
<path d="M0 0 C2.31 0 4.62 0 7 0 C7 1.98 7 3.96 7 6 C6.34 6 5.68 6 5 6 C5 6.66 5 7.32 5 8 C2.625 8.125 2.625 8.125 0 8 C-0.66 7.34 -1.32 6.68 -2 6 C-2 5.01 -2 4.02 -2 3 C-1.34 3 -0.68 3 0 3 C0 2.01 0 1.02 0 0 Z " fill="#46362F" transform="translate(153,83)"/>
<path d="M0 0 C3 2 3 2 3.68139648 3.74511719 C4.07737023 6.54757967 4.11153391 9.24708252 4.09765625 12.078125 C4.09282227 13.81835938 4.09282227 13.81835938 4.08789062 15.59375 C4.07951172 16.8003125 4.07113281 18.006875 4.0625 19.25 C4.05798828 20.47203125 4.05347656 21.6940625 4.04882812 22.953125 C4.03704815 25.96879946 4.02059853 28.98437498 4 32 C3.67 32 3.34 32 3 32 C2.97494385 31.39003174 2.9498877 30.78006348 2.92407227 30.15161133 C2.8075942 27.37172102 2.68510368 24.5921266 2.5625 21.8125 C2.52318359 20.85279297 2.48386719 19.89308594 2.44335938 18.90429688 C2.40146484 17.97294922 2.35957031 17.04160156 2.31640625 16.08203125 C2.27974854 15.22843018 2.24309082 14.3748291 2.20532227 13.49536133 C1.99468906 10.93545406 1.55158464 8.50666757 1 6 C0.01 6 -0.98 6 -2 6 C-1.125 1.125 -1.125 1.125 0 0 Z " fill="#6A868C" transform="translate(167,126)"/>
<path d="M0 0 C1.32 0.99 2.64 1.98 4 3 C2.14375 3.1546875 2.14375 3.1546875 0.25 3.3125 C-3.32502267 3.61041856 -5.48541143 4.36780261 -8 7 C-8.52196269 9.89831407 -8.52196269 9.89831407 -8.3125 13.0625 C-8.28800781 14.12597656 -8.26351562 15.18945312 -8.23828125 16.28515625 C-8.17054583 18.96498992 -8.17054583 18.96498992 -7 21 C-10.875 19.125 -10.875 19.125 -12 18 C-12.51617526 11.90913193 -12.05630193 8.86756232 -8 4 C-4.77208445 1.8480563 -3.71599191 1.79913557 0 2 C0 1.34 0 0.68 0 0 Z " fill="#D49376" transform="translate(116,194)"/>
<path d="M0 0 C0.33 1.32 0.66 2.64 1 4 C2.65 4 4.3 4 6 4 C5.34 4.66 4.68 5.32 4 6 C2.8853477 9.348311 1.95268 12.73126235 1 16.12890625 C0 19 0 19 -2 20 C-2.26404456 13.13484138 -1.25841946 6.74153283 0 0 Z " fill="#7E342D" transform="translate(150,113)"/>
<path d="M0 0 C4.55555556 0.55555556 4.55555556 0.55555556 6 2 C6.125 4.5 6.125 4.5 6 7 C5 8 5 8 1.9375 8.0625 C0.968125 8.041875 -0.00125 8.02125 -1 8 C-1.625 5.125 -1.625 5.125 -2 2 C-1.34 1.34 -0.68 0.68 0 0 Z " fill="#3D332D" transform="translate(134,79)"/>
<path d="M0 0 C0.99 0.33 1.98 0.66 3 1 C3.6875 3.0625 3.6875 3.0625 4 5 C3.34 4.67 2.68 4.34 2 4 C1.87625 4.94875 1.7525 5.8975 1.625 6.875 C1 10 1 10 -1 12 C-1.66 11.67 -2.32 11.34 -3 11 C-3.33 11.66 -3.66 12.32 -4 13 C-4.33 12.01 -4.66 11.02 -5 10 C-5.66 9.34 -6.32 8.68 -7 8 C-5.47005208 6.79557292 -3.94010417 5.59114583 -2.41015625 4.38671875 C-0.72844923 2.94316909 -0.72844923 2.94316909 0 0 Z " fill="#EAE8E5" transform="translate(97,194)"/>
<path d="M0 0 C3 2 3 2 3.68359375 3.703125 C4.10165956 6.7379731 4.09312533 9.6874667 4.0625 12.75 C4.05347656 13.92046875 4.04445312 15.0909375 4.03515625 16.296875 C4.02355469 17.18890625 4.01195312 18.0809375 4 19 C3.34 19 2.68 19 2 19 C1.86722656 18.09636719 1.73445312 17.19273437 1.59765625 16.26171875 C1.42105469 15.08222656 1.24445313 13.90273437 1.0625 12.6875 C0.88847656 11.51574219 0.71445313 10.34398437 0.53515625 9.13671875 C0.07906969 5.98358597 0.07906969 5.98358597 -1 3 C-0.67 2.01 -0.34 1.02 0 0 Z " fill="#F3F0EC" transform="translate(135,156)"/>
<path d="M0 0 C0.33 0 0.66 0 1 0 C1.03738281 1.13179687 1.07476562 2.26359375 1.11328125 3.4296875 C1.17893082 4.91149205 1.24537851 6.39326139 1.3125 7.875 C1.33505859 8.62136719 1.35761719 9.36773437 1.38085938 10.13671875 C1.47811945 12.099604 1.73042294 14.05328322 2 16 C2.99 16.66 3.98 17.32 5 18 C5.1875 20.625 5.1875 20.625 5 23 C4.34 23.33 3.68 23.66 3 24 C2.01 23.67 1.02 23.34 0 23 C-1.32575494 18.17818019 -0.90062439 13.61167933 -0.5625 8.6875 C-0.51029297 7.85154297 -0.45808594 7.01558594 -0.40429688 6.15429688 C-0.27532629 4.10249211 -0.13844979 2.05118694 0 0 Z " fill="#97ADAD" transform="translate(171,141)"/>
<path d="M0 0 C0.99 0.33 1.98 0.66 3 1 C4.00496852 4.01490557 4.10335303 6.04181692 4.0625 9.1875 C4.05347656 10.08855469 4.04445313 10.98960937 4.03515625 11.91796875 C4.02355469 12.60503906 4.01195313 13.29210937 4 14 C3.01 14 2.02 14 1 14 C-0.38226016 11.23547967 -0.09525387 8.9538637 -0.0625 5.875 C-0.05347656 4.77929688 -0.04445313 3.68359375 -0.03515625 2.5546875 C-0.02355469 1.71164063 -0.01195313 0.86859375 0 0 Z " fill="#8B9C9E" transform="translate(120,126)"/>
<path d="M0 0 C3.125 0.375 3.125 0.375 6 1 C5.34 3.64 4.68 6.28 4 9 C2.35 8.67 0.7 8.34 -1 8 C-0.67 6.35 -0.34 4.7 0 3 C-0.66 2.67 -1.32 2.34 -2 2 C-1.34 1.34 -0.68 0.68 0 0 Z " fill="#F2F1F0" transform="translate(86,137)"/>
<path d="M0 0 C3.51716303 0 4.37121748 0.82445585 7 3 C6.67 4.32 6.34 5.64 6 7 C4.02 6.34 2.04 5.68 0 5 C0.99 6.32 1.98 7.64 3 9 C0.13275314 8.42655063 -0.8614515 8.1385485 -3 6 C-2.63318342 3.06546739 -2.13562754 2.13562754 0 0 Z M1 3 C2 5 2 5 2 5 Z " fill="#EBEBEB" transform="translate(119,104)"/>
<path d="M0 0 C1.21236328 0.01353516 1.21236328 0.01353516 2.44921875 0.02734375 C3.37154297 0.04474609 3.37154297 0.04474609 4.3125 0.0625 C1.42621599 1.63804035 -1.22092384 2.52526373 -4.4375 3.1875 C-5.23671875 3.35507813 -6.0359375 3.52265625 -6.859375 3.6953125 C-7.46265625 3.81648437 -8.0659375 3.93765625 -8.6875 4.0625 C-7.3675 5.7125 -6.0475 7.3625 -4.6875 9.0625 C-7.15550047 7.91076645 -8.73533565 7.01466435 -10.6875 5.0625 C-13.12002661 4.60087573 -13.12002661 4.60087573 -15.8125 4.4375 C-16.72257813 4.36273438 -17.63265625 4.28796875 -18.5703125 4.2109375 C-19.26898438 4.16195312 -19.96765625 4.11296875 -20.6875 4.0625 C-20.6875 3.7325 -20.6875 3.4025 -20.6875 3.0625 C-19.33205078 2.86333984 -19.33205078 2.86333984 -17.94921875 2.66015625 C-16.76972656 2.48355469 -15.59023437 2.30695313 -14.375 2.125 C-12.61736328 1.86396484 -12.61736328 1.86396484 -10.82421875 1.59765625 C-1.34555382 -0.01950078 -1.34555382 -0.01950078 0 0 Z " fill="#DDD7D1" transform="translate(176.6875,215.9375)"/>
<path d="M0 0 C0.33 0 0.66 0 1 0 C1 9.24 1 18.48 1 28 C-0.32 28 -1.64 28 -3 28 C-2.125 22.25 -2.125 22.25 -1 20 C-0.84876169 18.4804236 -0.75118307 16.95527498 -0.68359375 15.4296875 C-0.64169922 14.53378906 -0.59980469 13.63789063 -0.55664062 12.71484375 C-0.51732422 11.77769531 -0.47800781 10.84054688 -0.4375 9.875 C-0.39431641 8.93011719 -0.35113281 7.98523438 -0.30664062 7.01171875 C-0.20040928 4.67462908 -0.09836824 2.3374317 0 0 Z " fill="#A6536B" transform="translate(159,163)"/>
<path d="M0 0 C1.32 0.33 2.64 0.66 4 1 C5.512545 6.16044765 6.33500455 9.65998179 5 15 C4.34 15 3.68 15 3 15 C2.01 10.05 1.02 5.1 0 0 Z " fill="#F0E6E3" transform="translate(153,122)"/>
<path d="M0 0 C2.5 2.3125 2.5 2.3125 5 5 C5 5.99 5 6.98 5 8 C2.03 8 -0.94 8 -4 8 C-2.66666667 5.33333333 -1.33333333 2.66666667 0 0 Z " fill="#723427" transform="translate(193,199)"/>
<path d="M0 0 C5.33390806 1.93960293 7.10178076 4.24963243 9.43359375 9.16015625 C10 11 10 11 9 13 C4.47294663 9.85621294 2.41995531 6.83991063 0 2 C0 1.34 0 0.68 0 0 Z " fill="#AA5542" transform="translate(130,119)"/>
<path d="M0 0 C0 0.99 0 1.98 0 3 C-7.26 3 -14.52 3 -22 3 C-22 2.67 -22 2.34 -22 2 C-19.64655194 1.66076424 -17.2924516 1.32849466 -14.9375 1 C-14.28072266 0.90460938 -13.62394531 0.80921875 -12.94726562 0.7109375 C-8.59861237 0.11112326 -4.38670929 -0.09127093 0 0 Z " fill="#D4CDC9" transform="translate(174,211)"/>
<path d="M0 0 C0.33 0.66 0.66 1.32 1 2 C3.31 1.34 5.62 0.68 8 0 C7.6875 1.875 7.6875 1.875 7 4 C3.68629 6.20914 2.6553979 6.22481553 -1.1875 6.125 C-2.08855469 6.10695312 -2.98960937 6.08890625 -3.91796875 6.0703125 C-4.60503906 6.04710937 -5.29210937 6.02390625 -6 6 C-6 5.67 -6 5.34 -6 5 C-4.35 4.67 -2.7 4.34 -1 4 C-0.67 2.68 -0.34 1.36 0 0 Z " fill="#DC9D80" transform="translate(143,214)"/>
<path d="M0 0 C0.33 0 0.66 0 1 0 C1 3.63 1 7.26 1 11 C-6.57142857 4.71428571 -6.57142857 4.71428571 -9 1 C-6.69 1.66 -4.38 2.32 -2 3 C-1.34 2.01 -0.68 1.02 0 0 Z " fill="#D59073" transform="translate(144,120)"/>
<path d="M0 0 C-3.07660604 3.07660604 -5.34335819 2.98253612 -9.671875 3.09765625 C-11.03128449 3.09105717 -12.3906771 3.07920246 -13.75 3.0625 C-14.44738281 3.05798828 -15.14476562 3.05347656 -15.86328125 3.04882812 C-17.57555803 3.0371002 -19.28779033 3.01916653 -21 3 C-17.52177962 0.68118641 -14.53897419 0.30871683 -10.5 -0.1875 C-9.82324219 -0.28224609 -9.14648438 -0.37699219 -8.44921875 -0.47460938 C-5.21481682 -0.89246603 -3.13513317 -1.04504439 0 0 Z " fill="#AFABA8" transform="translate(207,207)"/>
<path d="M0 0 C2.42054679 0.80684893 4.80101817 1.66267898 7.1875 2.5625 C7.90292969 2.83191406 8.61835937 3.10132813 9.35546875 3.37890625 C9.89816406 3.58386719 10.44085938 3.78882813 11 4 C11 4.99 11 5.98 11 7 C8.8125 7.8125 8.8125 7.8125 6 8 C3.1875 5.5625 3.1875 5.5625 1 3 C0.67 3.99 0.34 4.98 0 6 C0 4.02 0 2.04 0 0 Z " fill="#E1DCD7" transform="translate(99,188)"/>
<path d="M0 0 C9.59453303 2.89066059 9.59453303 2.89066059 13 6 C12.67 6.99 12.34 7.98 12 9 C10.39528272 8.04258894 8.79124671 7.08403595 7.1875 6.125 C6.29417969 5.59132813 5.40085938 5.05765625 4.48046875 4.5078125 C2.62705276 3.38116908 0.80470083 2.20313389 -1 1 C-0.67 0.67 -0.34 0.34 0 0 Z " fill="#C5B9B1" transform="translate(154,118)"/>
<path d="M0 0 C1.299375 0.7115625 1.299375 0.7115625 2.625 1.4375 C8.38489319 3.96565188 14.80756195 3.75092829 21 4 C21 4.33 21 4.66 21 5 C17.93726169 5.05410136 14.87548548 5.09372225 11.8125 5.125 C10.51602539 5.15013672 10.51602539 5.15013672 9.19335938 5.17578125 C4.67791897 5.21038233 1.09918517 5.15567916 -3 3 C-2.01 2.67 -1.02 2.34 0 2 C0 1.34 0 0.68 0 0 Z " fill="#BFBAB7" transform="translate(96,214)"/>
<path d="M0 0 C-1.75 6.75 -1.75 6.75 -4 9 C-6.625 9.125 -6.625 9.125 -9 9 C-6 7 -6 7 -4 6 C-4 4.68 -4 3.36 -4 2 C-6.31 2.33 -8.62 2.66 -11 3 C-10 1 -10 1 -7.1875 -0.1875 C-4.14038924 -0.96421451 -2.86250637 -1.10096399 0 0 Z " fill="#B56851" transform="translate(154,200)"/>
<path d="M0 0 C0.99 0.33 1.98 0.66 3 1 C3 2.32 3 3.64 3 5 C3.99 5 4.98 5 6 5 C6 5.66 6 6.32 6 7 C4.948125 6.814375 3.89625 6.62875 2.8125 6.4375 C-0.57119882 6.04920669 -2.76425888 6.11752515 -6 7 C-6 6.34 -6 5.68 -6 5 C-5.195625 4.731875 -4.39125 4.46375 -3.5625 4.1875 C-2.716875 3.795625 -1.87125 3.40375 -1 3 C-0.67 2.01 -0.34 1.02 0 0 Z " fill="#BB8E78" transform="translate(151,194)"/>
<path d="M0 0 C0.33 0.66 0.66 1.32 1 2 C1.66 2 2.32 2 3 2 C2.67 3.32 2.34 4.64 2 6 C-0.31 6.33 -2.62 6.66 -5 7 C-5 5.68 -5 4.36 -5 3 C-2.5 1.25 -2.5 1.25 0 0 Z " fill="#B0BBBB" transform="translate(125,174)"/>
<path d="M0 0 C0.78375 0.04125 1.5675 0.0825 2.375 0.125 C1.2303125 1.2078125 1.2303125 1.2078125 0.0625 2.3125 C-4.14213542 6.71269986 -5.91972504 10.05963532 -6.625 16.125 C-6.955 16.125 -7.285 16.125 -7.625 16.125 C-8.18289474 6.64078947 -8.18289474 6.64078947 -4.625 2.125 C-2.625 0.125 -2.625 0.125 0 0 Z " fill="#73959C" transform="translate(119.625,140.875)"/>
<path d="M0 0 C0.66 0.33 1.32 0.66 2 1 C0.71034824 2.37562854 -0.62689293 3.70766393 -2 5 C-2.66 5 -3.32 5 -4 5 C-4.33 7.64 -4.66 10.28 -5 13 C-5.33 13 -5.66 13 -6 13 C-6 11.02 -6 9.04 -6 7 C-7.32 6.34 -8.64 5.68 -10 5 C-8.38007835 4.13624104 -6.75388139 3.28424146 -5.125 2.4375 C-4.22007812 1.96183594 -3.31515625 1.48617187 -2.3828125 0.99609375 C-1.20332031 0.50302734 -1.20332031 0.50302734 0 0 Z " fill="#D38E70" transform="translate(150,105)"/>
<path d="M0 0 C1.32 0.99 2.64 1.98 4 3 C3.34 6.96 2.68 10.92 2 15 C1.67 15 1.34 15 1 15 C-0.03590199 9.94997778 -0.10251672 5.12583611 0 0 Z " fill="#846B62" transform="translate(127,101)"/>
<path d="M0 0 C0 2.62834278 -0.19789762 5.08186701 -0.5 7.6875 C-0.5928125 8.49574219 -0.685625 9.30398437 -0.78125 10.13671875 C-0.8534375 10.75160156 -0.925625 11.36648437 -1 12 C-2.32 12.33 -3.64 12.66 -5 13 C-5.33 11.68 -5.66 10.36 -6 9 C-5.34 9 -4.68 9 -4 9 C-3.8453125 7.329375 -3.8453125 7.329375 -3.6875 5.625 C-3.460625 4.42875 -3.23375 3.2325 -3 2 C-2.01 1.34 -1.02 0.68 0 0 Z " fill="#C67B5F" transform="translate(148,121)"/>
<path d="M0 0 C0.33 0.99 0.66 1.98 1 3 C-2.63 3.66 -6.26 4.32 -10 5 C-10.33 4.01 -10.66 3.02 -11 2 C-7.17010894 0.19769832 -4.21878192 -0.19622241 0 0 Z " fill="#7F6A64" transform="translate(142,56)"/>
<path d="M0 0 C0.33 0 0.66 0 1 0 C1.06058594 0.69867188 1.12117188 1.39734375 1.18359375 2.1171875 C1.26738281 3.02726563 1.35117188 3.93734375 1.4375 4.875 C1.51871094 5.77992188 1.59992188 6.68484375 1.68359375 7.6171875 C1.86989285 10.01110861 1.86989285 10.01110861 3 12 C0.5625 11.375 0.5625 11.375 -2 10 C-3 7.125 -3 7.125 -3 4 C-1.625 1.625 -1.625 1.625 0 0 Z " fill="#923F2A" transform="translate(103,202)"/>
<path d="M0 0 C4.48525648 0.656379 8.66914029 1.70074209 13 3 C13 3.33 13 3.66 13 4 C11.04174127 4.02694851 9.08337774 4.04637218 7.125 4.0625 C6.03445312 4.07410156 4.94390625 4.08570313 3.8203125 4.09765625 C1 4 1 4 -1 3 C-0.67 2.01 -0.34 1.02 0 0 Z " fill="#7F9395" transform="translate(128,192)"/>
<path d="M0 0 C0.91007813 0.00902344 1.82015625 0.01804688 2.7578125 0.02734375 C3.45648438 0.03894531 4.15515625 0.05054688 4.875 0.0625 C5.205 1.0525 5.535 2.0425 5.875 3.0625 C4.08366022 3.11641993 2.29186101 3.15525571 0.5 3.1875 C-0.49773437 3.21070313 -1.49546875 3.23390625 -2.5234375 3.2578125 C-5.125 3.0625 -5.125 3.0625 -7.125 1.0625 C-4.60024538 -0.19987731 -2.81299534 -0.03606404 0 0 Z " fill="#D5A088" transform="translate(139.125,190.9375)"/>
<path d="M0 0 C2.475 0.99 2.475 0.99 5 2 C5 4.97 5 7.94 5 11 C4.01 11.33 3.02 11.66 2 12 C0.86235649 7.73383684 0 4.43513689 0 0 Z " fill="#E1E1DC" transform="translate(108,155)"/>
<path d="M0 0 C1.258125 0.12375 2.51625 0.2475 3.8125 0.375 C4.87404297 0.47941406 4.87404297 0.47941406 5.95703125 0.5859375 C8 1 8 1 11 3 C11 3.66 11 4.32 11 5 C9.741875 4.87625 8.48375 4.7525 7.1875 4.625 C6.12595703 4.52058594 6.12595703 4.52058594 5.04296875 4.4140625 C3 4 3 4 0 2 C0 1.34 0 0.68 0 0 Z " fill="#654D45" transform="translate(152,75)"/>
<path d="M0 0 C4 2 4 2 4.9375 3.9375 C5 6 5 6 3.6875 7.75 C2 9 2 9 0 9 C0 6.03 0 3.06 0 0 Z " fill="#DADADA" transform="translate(55,104)"/>
<path d="M0 0 C1.35439668 2.70879335 1.06501451 5.00933268 1 8 C1.66 8.33 2.32 8.66 3 9 C3 7.35 3 5.7 3 4 C3.66 4 4.32 4 5 4 C5 6.97 5 9.94 5 13 C0.125 10.125 0.125 10.125 -1 9 C-1.1328125 7.1875 -1.1328125 7.1875 -1.125 5 C-1.12757812 4.278125 -1.13015625 3.55625 -1.1328125 2.8125 C-1 1 -1 1 0 0 Z " fill="#F4C5AC" transform="translate(117,75)"/>
<path d="M0 0 C4.95 0.99 4.95 0.99 10 2 C7.75 4.0625 7.75 4.0625 5 6 C2.6875 5.75 2.6875 5.75 1 5 C0.67 3.35 0.34 1.7 0 0 Z " fill="#E2E2E2" transform="translate(77,213)"/>
<path d="M0 0 C2.78637633 4.1795645 1.79562512 6.14668677 1 11 C0.01 11 -0.98 11 -2 11 C-3.67830848 7.64338305 -2.6353188 4.63864406 -2 1 C-1.34 0.67 -0.68 0.34 0 0 Z " fill="#BEBAB4" transform="translate(108,159)"/>
<path d="M0 0 C0.66 0.33 1.32 0.66 2 1 C1.67 2.32 1.34 3.64 1 5 C1.99 5 2.98 5 4 5 C4 5.66 4 6.32 4 7 C2.0085944 7.38133299 0.00720923 7.71325582 -2 8 C-3 7 -3 7 -3.25 4.5625 C-3.1675 3.716875 -3.085 2.87125 -3 2 C-2.01 1.34 -1.02 0.68 0 0 Z " fill="#CAC5C0" transform="translate(164,127)"/>
<path d="M0 0 C0.66 0 1.32 0 2 0 C2.04241723 2.33294775 2.04092937 4.66702567 2 7 C1 8 1 8 -1.5625 8.0625 C-2.366875 8.041875 -3.17125 8.02125 -4 8 C-3.625 6.0625 -3.625 6.0625 -3 4 C-2.34 3.67 -1.68 3.34 -1 3 C-0.67 2.01 -0.34 1.02 0 0 Z " fill="#BB6D51" transform="translate(171,85)"/>
<path d="M0 0 C3.3 0 6.6 0 10 0 C8.68 1.65 7.36 3.3 6 5 C4 4 2 3 0 2 C0 1.34 0 0.68 0 0 Z " fill="#D8D8D8" transform="translate(116,42)"/>
<path d="M0 0 C0 0.33 0 0.66 0 1 C-4.43409099 2.10852275 -8.45468578 2.21993456 -13 2 C-13.99 1.34 -14.98 0.68 -16 0 C-10.31302429 -0.91397824 -5.68697571 -0.91397824 0 0 Z " fill="#E6AE90" transform="translate(128,197)"/>
<path d="M0 0 C0.33 0 0.66 0 1 0 C1 4.62 1 9.24 1 14 C0.34 13.67 -0.32 13.34 -1 13 C-1.484375 11.07421875 -1.484375 11.07421875 -1.75 8.6875 C-1.84796875 7.90761719 -1.9459375 7.12773437 -2.046875 6.32421875 C-1.99392264 3.69866432 -1.32990442 2.23526243 0 0 Z " fill="#CBCBC7" transform="translate(117,144)"/>
<path d="M0 0 C6.625 -0.125 6.625 -0.125 10 1 C10 1.66 10 2.32 10 3 C6.37 3 2.74 3 -1 3 C-0.67 2.01 -0.34 1.02 0 0 Z " fill="#795F56" transform="translate(132,72)"/>
<path d="M0 0 C2.16874252 0.50603992 3.99967627 0.99983813 6 2 C6 2.99 6 3.98 6 5 C3.36 5.33 0.72 5.66 -2 6 C-2.66 5.01 -3.32 4.02 -4 3 C-2.35 3 -0.7 3 1 3 C1.33 2.34 1.66 1.68 2 1 C1.34 0.67 0.68 0.34 0 0 Z " fill="#E7AF92" transform="translate(141,92)"/>
<path d="M0 0 C0.66 0 1.32 0 2 0 C2 2.64 2 5.28 2 8 C1.01 8.33 0.02 8.66 -1 9 C-1.33 9.66 -1.66 10.32 -2 11 C-1.85892253 9.54119891 -1.71197585 8.08296449 -1.5625 6.625 C-1.48128906 5.81289062 -1.40007812 5.00078125 -1.31640625 4.1640625 C-1 2 -1 2 0 0 Z " fill="#747E77" transform="translate(166,157)"/>
<path d="M0 0 C1.32 0.66 2.64 1.32 4 2 C3.67 3.65 3.34 5.3 3 7 C1.68 6.34 0.36 5.68 -1 5 C-0.67 3.35 -0.34 1.7 0 0 Z " fill="#F2F2EF" transform="translate(89,202)"/>
<path d="M0 0 C0.66 0 1.32 0 2 0 C2.33 2.64 2.66 5.28 3 8 C2.34 8 1.68 8 1 8 C1 9.65 1 11.3 1 13 C0.67 13 0.34 13 0 13 C0 8.71 0 4.42 0 0 Z " fill="#B66B83" transform="translate(157,154)"/>
<path d="M0 0 C1.65 0 3.3 0 5 0 C4.67 1.65 4.34 3.3 4 5 C4.99 5.33 5.98 5.66 7 6 C3.625 6.125 3.625 6.125 0 6 C-0.66 5.34 -1.32 4.68 -2 4 C-0.68 4 0.64 4 2 4 C2 3.01 2 2.02 2 1 C1.34 0.67 0.68 0.34 0 0 Z " fill="#CD8E71" transform="translate(145,93)"/>
<path d="M0 0 C1.32 0 2.64 0 4 0 C4.33 1.32 4.66 2.64 5 4 C1.77208445 6.1519437 0.71599191 6.20086443 -3 6 C-3.33 6.66 -3.66 7.32 -4 8 C-4 7.01 -4 6.02 -4 5 C-2.35 5 -0.7 5 1 5 C1.33 4.01 1.66 3.02 2 2 C1.34 1.34 0.68 0.68 0 0 Z " fill="#DB9778" transform="translate(146,202)"/>
<path d="M0 0 C0.66 0.33 1.32 0.66 2 1 C2 3 2 5 2 7 C1.01 7.33 0.02 7.66 -1 8 C-1.66 7.34 -2.32 6.68 -3 6 C-2.63318342 3.06546739 -2.13562754 2.13562754 0 0 Z " fill="#EEEEEE" transform="translate(219,137)"/>
<path d="M0 0 C2.64 0 5.28 0 8 0 C8 0.99 8 1.98 8 3 C5.36 3 2.72 3 0 3 C0 2.01 0 1.02 0 0 Z " fill="#E2DDDA" transform="translate(174,211)"/>
<path d="M0 0 C2.125 0.375 2.125 0.375 4 1 C4 1.66 4 2.32 4 3 C1.36 3.99 -1.28 4.98 -4 6 C-2.84826645 3.53199953 -1.95216435 1.95216435 0 0 Z " fill="#F8F8F8" transform="translate(180,183)"/>
<path d="M0 0 C0.33 0 0.66 0 1 0 C1.04898438 0.99902344 1.09796875 1.99804688 1.1484375 3.02734375 C1.22320312 4.31769531 1.29796875 5.60804688 1.375 6.9375 C1.44460937 8.22527344 1.51421875 9.51304687 1.5859375 10.83984375 C1.72257812 11.88269531 1.85921875 12.92554688 2 14 C2.66 14.33 3.32 14.66 4 15 C2.68 15.33 1.36 15.66 0 16 C0 10.72 0 5.44 0 0 Z " fill="#E1DDD8" transform="translate(108,170)"/>
<path d="M0 0 C1.875 0.3125 1.875 0.3125 4 1 C6 4 6 4 6 7 C2.99390037 5.99796679 1.93823179 5.39971554 0 3 C0 2.01 0 1.02 0 0 Z " fill="#BFBAB4" transform="translate(186,169)"/>
<path d="M0 0 C0.33 1.32 0.66 2.64 1 4 C2.65 4 4.3 4 6 4 C4.68 5.65 3.36 7.3 2 9 C2 8.34 2 7.68 2 7 C1.34 7 0.68 7 0 7 C-0.33 7.99 -0.66 8.98 -1 10 C-0.67 6.7 -0.34 3.4 0 0 Z " fill="#945C4A" transform="translate(150,113)"/>
<path d="M0 0 C0.99 0.33 1.98 0.66 3 1 C3 2.98 3 4.96 3 7 C2.01 7 1.02 7 0 7 C-0.38133299 5.0085944 -0.71325582 3.00720923 -1 1 C-0.67 0.67 -0.34 0.34 0 0 Z " fill="#4F4842" transform="translate(133,80)"/>
<path d="M0 0 C0.99 0 1.98 0 3 0 C3 1.32 3 2.64 3 4 C3.66 4 4.32 4 5 4 C5 4.66 5 5.32 5 6 C3.68 5.67 2.36 5.34 1 5 C0.67 5.99 0.34 6.98 0 8 C0 5.36 0 2.72 0 0 Z " fill="#7D3A2F" transform="translate(96,206)"/>
<path d="M0 0 C-0.33 3.63 -0.66 7.26 -1 11 C-1.99 10.34 -2.98 9.68 -4 9 C-4.42151163 5.69815888 -4.62848726 3.81976599 -2.5625 1.125 C-1 0 -1 0 0 0 Z " fill="#ACA7A1" transform="translate(108,167)"/>
<path d="M0 0 C0.33 0.99 0.66 1.98 1 3 C-0.9375 6.1875 -0.9375 6.1875 -3 9 C-4.125 7.25 -4.125 7.25 -5 5 C-4.3125 2.8125 -4.3125 2.8125 -3 1 C-2.01 0.67 -1.02 0.34 0 0 Z " fill="#BB8696" transform="translate(152,143)"/>
<path d="M0 0 C0.33 0 0.66 0 1 0 C0.67 3.96 0.34 7.92 0 12 C-0.66 12 -1.32 12 -2 12 C-3.23222749 7.56398104 -3.23222749 7.56398104 -2.125 4.875 C-1.75375 4.25625 -1.3825 3.6375 -1 3 C-0.67 2.01 -0.34 1.02 0 0 Z " fill="#413734" transform="translate(158,107)"/>
<path d="M0 0 C2.51570636 0.97382182 3.73944098 1.46151135 4.9375 3.9375 C5 6 5 6 3.6875 7.75 C2 9 2 9 0 9 C0.37125 8.071875 0.7425 7.14375 1.125 6.1875 C1.41375 5.135625 1.7025 4.08375 2 3 C1.34 2.01 0.68 1.02 0 0 Z " fill="#D4D4D4" transform="translate(187,104)"/>
<path d="M0 0 C1.65 0.99 3.3 1.98 5 3 C5.99 2.34 6.98 1.68 8 1 C7.67 2.98 7.34 4.96 7 7 C4.20171644 6.61402985 3.1794116 6.19863427 1.25 4.0625 C0 2 0 2 0 0 Z " fill="#D6D3CE" transform="translate(97,150)"/>
<path d="M0 0 C0.99 0 1.98 0 3 0 C4.6875 2 4.6875 2 6 4 C5.34 4.66 4.68 5.32 4 6 C3.01 5.67 2.02 5.34 1 5 C1.33 4.34 1.66 3.68 2 3 C1.34 3 0.68 3 0 3 C0 2.01 0 1.02 0 0 Z " fill="#B1ACA6" transform="translate(185,173)"/>
<path d="M0 0 C1.17673198 2.35346396 1.16623866 3.8806033 1.1875 6.5 C1.20167969 7.2940625 1.21585938 8.088125 1.23046875 8.90625 C1 11 1 11 -1 13 C-3.125 12.625 -3.125 12.625 -5 12 C-4.01 12 -3.02 12 -2 12 C-1.93941406 11.21753906 -1.87882813 10.43507812 -1.81640625 9.62890625 C-1.73261719 8.61699219 -1.64882812 7.60507813 -1.5625 6.5625 C-1.48128906 5.55316406 -1.40007812 4.54382813 -1.31640625 3.50390625 C-1 1 -1 1 0 0 Z " fill="#B15F4A" transform="translate(148,123)"/>
<path d="M0 0 C2.31 0.33 4.62 0.66 7 1 C7.33 1.99 7.66 2.98 8 4 C5.33333333 3.33333333 2.66666667 2.66666667 0 2 C0 1.34 0 0.68 0 0 Z " fill="#DAD5CF" transform="translate(71,177)"/>
<path d="M0 0 C-0.020625 0.78375 -0.04125 1.5675 -0.0625 2.375 C-0.18684063 4.98114961 -0.18684063 4.98114961 1 7 C-0.65 6.67 -2.3 6.34 -4 6 C-3.625 3.5625 -3.625 3.5625 -3 1 C-1 0 -1 0 0 0 Z " fill="#EBEAE8" transform="translate(89,139)"/>
<path d="M0 0 C1.32 0.99 2.64 1.98 4 3 C3.67 4.32 3.34 5.64 3 7 C2.34 7 1.68 7 1 7 C0.34 5.02 -0.32 3.04 -1 1 C-0.67 0.67 -0.34 0.34 0 0 Z " fill="#F2F2F2" transform="translate(122,104)"/>
<path d="M0 0 C0.33 0 0.66 0 1 0 C1 2.64 1 5.28 1 8 C-1.31 7.67 -3.62 7.34 -6 7 C-2.25 5 -2.25 5 0 5 C0 3.35 0 1.7 0 0 Z " fill="#E2DDD7" transform="translate(95,208)"/>
<path d="M0 0 C1.79133978 -0.05391993 3.58313899 -0.09275571 5.375 -0.125 C6.37273437 -0.14820313 7.37046875 -0.17140625 8.3984375 -0.1953125 C11 0 11 0 13 2 C9.61725734 3.12758089 8.23221777 2.81750262 4.8125 2.0625 C3.91144531 1.86785156 3.01039062 1.67320312 2.08203125 1.47265625 C1.39496094 1.31667969 0.70789063 1.16070312 0 1 C0 0.67 0 0.34 0 0 Z " fill="#D3D1CE" transform="translate(75,211)"/>
<path d="M0 0 C2.97 0.495 2.97 0.495 6 1 C6 1.66 6 2.32 6 3 C6.66 3 7.32 3 8 3 C8 3.66 8 4.32 8 5 C2.25 3.375 2.25 3.375 0 0 Z " fill="#E4E2DF" transform="translate(67,207)"/>
<path d="M0 0 C0.66 0 1.32 0 2 0 C2 0.66 2 1.32 2 2 C2.66 2 3.32 2 4 2 C2.25 5.875 2.25 5.875 0 7 C0 4.69 0 2.38 0 0 Z " fill="#F5F5F4" transform="translate(176,178)"/>
<path d="M0 0 C2.31 0.33 4.62 0.66 7 1 C6.01 2.485 6.01 2.485 5 4 C3.35 3.67 1.7 3.34 0 3 C0 2.01 0 1.02 0 0 Z " fill="#CC9077" transform="translate(151,207)"/>
<path d="M0 0 C0.66 0 1.32 0 2 0 C2 2.64 2 5.28 2 8 C1.01 7.34 0.02 6.68 -1 6 C-1.25 3.4375 -1.25 3.4375 -1 1 C-0.67 0.67 -0.34 0.34 0 0 Z " fill="#CFCDCA" transform="translate(118,171)"/>
<path d="M0 0 C3.24208567 0.35049575 4.61527704 0.56221181 6.8125 3.0625 C7.204375 3.701875 7.59625 4.34125 8 5 C2.25 3.375 2.25 3.375 0 0 Z " fill="#CD927A" transform="translate(126,116)"/>
<path d="M0 0 C0.66 0.33 1.32 0.66 2 1 C2 3.31 2 5.62 2 8 C1.01 7.67 0.02 7.34 -1 7 C-1.04254356 5.00045254 -1.04080783 2.99958364 -1 1 C-0.67 0.67 -0.34 0.34 0 0 Z " fill="#EAA282" transform="translate(118,76)"/>
</svg>
